<svg xmlns="http://www.w3.org/2000/svg"><symbol id="arrow-right" viewBox="0 0 64 64"><path fill="#231f20" d="M2.6 32.4A29.4 29.4 0 1 0 32 3.1 29.4 29.4 0 0 0 2.6 32.4zm18.2-17.2l15.5 8.9 15.5 9L36.3 42l-15.5 9V15.2z"/></symbol><symbol id="email" viewBox="0 0 64 64"><path fill="#010101" d="M55.7 7.6H8.3a5.4 5.4 0 0 0-5.1 5.6v37.6c0 3 2.3 5.6 5.1 5.6h47.4a5.4 5.4 0 0 0 5.1-5.6V13.2c0-3-2.3-5.6-5.1-5.6zm-.7 3.8L32.1 36.9 9 11.4zM6.6 50V14l16.2 17.9zM9 52.6l16.2-18 5.7 6.2a1.5 1.5 0 0 0 2.4 0l5.6-6.1L55 52.6zM57.4 50L41.2 32l16.2-18z"/></symbol><symbol id="email-white" viewBox="0 0 64 64"><path fill="#fff" d="M55.7 7.6H8.3a5.4 5.4 0 0 0-5.1 5.6v37.6c0 3 2.3 5.6 5.1 5.6h47.4a5.4 5.4 0 0 0 5.1-5.6V13.2c0-3-2.3-5.6-5.1-5.6zm-.7 3.8L32.1 36.9 9 11.4zM6.6 50V14l16.2 17.9zM9 52.6l16.2-18 5.7 6.2a1.5 1.5 0 0 0 2.4 0l5.6-6.1L55 52.6zM57.4 50L41.2 32l16.2-18z"/></symbol><symbol id="github" viewBox="0 0 64 64"><path fill="#010101" d="M32 1.2a31.6 31.6 0 0 0-10 61.6c1.6.3 2.2-.7 2.2-1.5v-5.4c-8.8 1.9-10.7-4.3-10.7-4.3C12.1 48 10 47 10 47c-2.8-1.9.3-1.9.3-1.9 3.1.2 4.8 3.3 4.8 3.3 2.8 4.8 7.4 3.4 9.2 2.6a5.6 5.6 0 0 1 2-4.2c-7-.8-14.4-3.6-14.4-15.7a12.6 12.6 0 0 1 3.2-8.5 11.1 11.1 0 0 1 .4-8.3s2.6-.9 8.6 3.2a34.2 34.2 0 0 1 7.9-1.1 34.2 34.2 0 0 1 7.9 1.1c6-4.1 8.6-3.2 8.6-3.2a11.1 11.1 0 0 1 .4 8.3 12.6 12.6 0 0 1 3.2 8.5c0 12.2-7.4 14.9-14.4 15.6a7.7 7.7 0 0 1 2.2 5.9c0 4.2-.1 7.6-.1 8.7s.6 1.8 2.2 1.5A31.6 31.6 0 0 0 32 1.2z"/></symbol><symbol id="arrow-left" viewBox="0 0 64 64"><path fill="#231f20" d="M32 2.4a29.4 29.4 0 1 0 29.4 29.4A29.4 29.4 0 0 0 32 2.4zm11.2 30v17.9l-15.5-8.9-15.5-9 15.5-8.9 15.5-9z"/></symbol><symbol id="github-white" viewBox="0 0 64 64"><path fill="#fff" d="M32 1.1a31.7 31.7 0 0 0-10 61.7c1.6.3 2.2-.7 2.2-1.5v-5.4c-8.8 1.9-10.7-4.3-10.7-4.3C12.1 48 10 47 10 47c-2.8-2 .3-1.9.3-1.9 3.1.2 4.8 3.2 4.8 3.2 2.8 4.9 7.4 3.5 9.2 2.7a6 6 0 0 1 2-4.3c-7-.8-14.4-3.5-14.4-15.6a12.4 12.4 0 0 1 3.2-8.5 11.1 11.1 0 0 1 .4-8.3s2.6-.9 8.6 3.2a34.2 34.2 0 0 1 7.9-1.1 34.2 34.2 0 0 1 7.9 1.1c6-4.1 8.6-3.2 8.6-3.2a11.1 11.1 0 0 1 .4 8.3 12.4 12.4 0 0 1 3.2 8.5c0 12.2-7.4 14.8-14.4 15.6a7.7 7.7 0 0 1 2.2 5.9c0 4.2-.1 7.6-.1 8.7s.6 1.8 2.2 1.5A31.7 31.7 0 0 0 32 1.1z"/></symbol><symbol id="heart" viewBox="0 0 64 64"><path fill="#ed1c24" d="M38.8 4.4a4.5 4.5 0 0 1 4.2-.7c1.4.4 3.7 1.3 4.5 2.6a1.3 1.3 0 0 0 2 .3c1.7-1.8 4.5-3.2 6.9-1.9a3.9 3.9 0 0 1 2.2 2.5 4.5 4.5 0 0 1-.8 3.7c-1.7 2.5-3.8 4.8-5.7 7.1s-3.3 4-4.9 6.1c-2.7-4.5-8.6-6.4-10.5-11.6-1-2.9-.5-6.2 2.1-8.1zm-15.2 53c-2.3-2.8-4.6-5.7-7.1-8.4l-4.3-4a20 20 0 0 1-3.5-4.6C6.8 36.9 5 33 5.2 28.9s2.2-6.3 5.2-7.1 8.4 2.7 10.6 5.7a1.3 1.3 0 0 0 1.9.3c2.1-2.6 4.6-5.6 8-6.2a13.4 13.4 0 0 1 6.2 1.1c1 .3 1.7.5 2.1 1.7a10.5 10.5 0 0 1 .5 3c.2 4.1-1.4 8-3.1 11.5a107.1 107.1 0 0 1-5.6 9.8 41.1 41.1 0 0 1-7.4 8.7z"/><path fill="#231f20" d="M48.7 3.9a4 4 0 0 1 1 1.2l-1.9-.3zm-1.5 20.2a6.6 6.6 0 0 1 .9 1.9c.5 1.5-1.9 2.2-2.4.6a.1.1 0 0 0-.1-.1 1.2 1.2 0 0 1 .4-.9z"/><path fill="#231f20" d="M43 3.7a4.5 4.5 0 0 0-4.2.7c-2.6 1.9-3.1 5.2-2.1 8.1 1.9 5.2 7.8 7.1 10.5 11.6L46 25.6a1.2 1.2 0 0 0-.4.9c-1.2-3.3-4.8-5.1-7.2-7.3s-5-6.4-4.7-10.3a8.9 8.9 0 0 1 5.8-7.6 7.5 7.5 0 0 1 5.5.5 11.4 11.4 0 0 1 3.7 2.1l-.9.9 1.9.3a4 4 0 0 0-1-1.2A8.5 8.5 0 0 1 56.6 2a6.8 6.8 0 0 1 4.7 6.6 9.4 9.4 0 0 1-2.1 4.5l-3.6 4.6-7.9 9.7c-.8 1-2 .1-2.1-.9a.1.1 0 0 1 .1.1c.5 1.6 2.9.9 2.4-.6a6.6 6.6 0 0 0-.9-1.9c1.6-2.1 3.3-4.1 4.9-6.1s4-4.6 5.7-7.1a4.5 4.5 0 0 0 .8-3.7 3.9 3.9 0 0 0-2.2-2.5c-2.4-1.3-5.2.1-6.9 1.9a1.3 1.3 0 0 1-2-.3C46.7 5 44.4 4.1 43 3.7zM24.1 58.2a1.3 1.3 0 0 1-.4 2c-1 0-1.9-1.3-.9-2a6 6 0 0 1 .8-.8 3.5 3.5 0 0 1 .5.8zm-2-33.3l1 1.4-1.9-.3z"/><path fill="#231f20" d="M13 19.3a14.9 14.9 0 0 1 9.1 5.6l-.9 1.1 1.9.3-1-1.4c2.7-3.1 5.9-6 10.3-5.8a17.9 17.9 0 0 1 6.7 1.7c2 .8 2.6 2.8 2.9 4.8.7 4.5-.7 8.9-2.5 12.9-3.6 7.9-8.3 15.9-15 21.4a1.1 1.1 0 0 1-.8.3 1.3 1.3 0 0 0 .4-2 3.5 3.5 0 0 0-.5-.8 41.1 41.1 0 0 0 7.4-8.7 107.1 107.1 0 0 0 5.6-9.8c1.7-3.5 3.3-7.4 3.1-11.5a10.5 10.5 0 0 0-.5-3c-.4-1.2-1.1-1.4-2.1-1.7a13.4 13.4 0 0 0-6.2-1.1c-3.4.6-5.9 3.6-8 6.2a1.3 1.3 0 0 1-1.9-.3c-2.2-3-6.5-6.7-10.6-5.7s-4.9 4.1-5.2 7.1 1.6 8 3.5 11.5a20 20 0 0 0 3.5 4.6l4.3 4c2.5 2.7 4.8 5.6 7.1 8.4a6 6 0 0 0-.8.8c-1 .7-.1 2 .9 2a.9.9 0 0 1-1.3-.3A92 92 0 0 0 11.8 48a30.1 30.1 0 0 1-7.6-11.3c-1.5-3.9-2.2-8.4-.3-12.3a8.8 8.8 0 0 1 9.1-5.1z"/></symbol><symbol id="logo-black" viewBox="0 0 64 64"><path fill="#231f20" d="M52.1 40.1c5.2-2 9.2-6.1 9.2-14.7 0-16.6-14.5-16.6-24.4-16.6H1.4v11.5h20.7v6.2H6.5v10.9h15.6v6.3H1.4v11.5h33.7V42.1h5l8.7 13.1h13.8zm-11.8-8.7h-5.2V20.2h5.2c4.3 0 8.5 0 8.5 5.5s-3.9 5.7-8.5 5.7z"/></symbol><symbol id="logo-white" viewBox="0 0 64 64"><path fill="#fff" d="M52.1 40.6c5.2-2.1 9.2-6.2 9.2-14.8 0-16.6-14.5-16.6-24.4-16.6H1.4v11.5h20.7v6.2H6.5v10.9h15.6v6.3H1.4v11.6h33.7V42.5h5l8.7 13.2h13.8zm-11.8-8.8h-5.2V20.7h5.2c4.3 0 8.5 0 8.5 5.5s-3.9 5.6-8.5 5.6z"/></symbol><symbol id="magnifying-glass" viewBox="0 0 64 64"><circle cx="25.8" cy="26.5" r="20.4" fill="#fff" stroke="#231f20" stroke-miterlimit="10" stroke-width="8"/><path fill="none" stroke="#231f20" stroke-miterlimit="10" stroke-width="8" d="M60.6 57.9L39.7 41.3"/></symbol><symbol id="pantone-colour" viewBox="0 0 64 64"><path d="M62 32v27.6c0 2.1-.1 2.2-2.1 2.2H4c-1.8 0-2-.2-2-2V4c0-2.1.1-2.1 2.1-2.1H60c1.9 0 2 .1 2 2V32zm-2.2 27.7V4H4.1v55.7z"/><path d="M45.6 50.4v-3.5h1.5v6.4c-2.7.3-2.3-2.5-3.8-3.5v3.4h-1.6v-6.3c2.8-.4 2.4 2.6 3.9 3.5zm-17.4 2.8c-1.2.5-1.8-.2-2.3-1.1a8.7 8.7 0 0 0-1.6-2.3v3.4h-1.5v-6.3c2.8-.4 2.4 2.5 4 3.5v-3.5h1.4zm12.6-3.1a3.4 3.4 0 1 1-6.7-.1 3.2 3.2 0 0 1 3.3-3.4 3.3 3.3 0 0 1 3.4 3.5zm-5-.1c0 1.3.7 2.1 1.7 2.1s1.6-.9 1.6-2.1a1.8 1.8 0 0 0-1.7-2c-1 0-1.6.8-1.6 2zm12.6-3.2h4.1c.3 0 .5.4.8.6s-.5.6-.8.6h-1.9c-.2 0-.4.3-.6.5s.4.6.7.6h1.4a3.3 3.3 0 0 1 1 .6l-1 .6a13.4 13.4 0 0 1-2 0c-.4 1.2-.1 1.7 1.1 1.5h1.7c.3 0 .7.4.6.5s-.3.7-.5.7h-4.6zm-36.3 6.4h-1.5v-6.3c1.3 0 2.6-.1 3.9 0a1.8 1.8 0 0 1 1.7 2 2 2 0 0 1-1.7 2.1 16 16 0 0 1-2.3.3zm.3-5.4l-.4.5c.2.6.2 1.4.6 1.6s1.2-.1 1.7-.3.2-.9.1-1zm9.8 5.4c-.9.1-1.5.2-2.1-.5s-2.1-.5-2.4 0-1.2.6-2.1.5c.7-2 1.5-4 2.3-6s1.7-.6 2 .1 1.5 3.9 2.3 5.9zM19.7 51l-.9-2.5L18 51zm11 2.1v-4.9l-1.6-.2-.2-1.1h5c.6 1.6-.7 1-1.5 1.3s-.1 2.6 0 3.9-.5 1.4-1.7 1zm26.4-4.7c-.5.4-1 1-1.6 1.1a1.2 1.2 0 0 1-1.5-1.3 1.3 1.3 0 0 1 1.4-1.5c.6.1 1.1.7 1.7 1.1z"/></symbol><symbol id="snowflake" viewBox="0 0 64 64"><path fill="#00aeef" stroke="#231f20" stroke-miterlimit="10" d="M52.8 21.8l2.1.9.9.3h.1a1.4 1.4 0 0 0 1 .8 1.7 1.7 0 0 0 2.1-1.1 2.6 2.6 0 0 0-1-2.5l-1.9-.7-1.9-.7 2.3-1.5c1.9-1.1.2-4.1-1.7-2.9l-2.3 1.4v-.2a3.6 3.6 0 0 1 .2-1 14.2 14.2 0 0 1 .4-2 1.8 1.8 0 0 0-1.2-2.1 1.7 1.7 0 0 0-2.1 1.2 30.7 30.7 0 0 0-.7 4.2A7.4 7.4 0 0 0 49 18l-2 1.2v-.6a.1.1 0 0 1 .1-.1 2.2 2.2 0 0 1 .1-.8c.1-.2.1-.4.2-.6s0-.1.1-.2v-.2c0-.1.1-.2.1-.3h.2l.4-.4a1.7 1.7 0 0 0 0-2.4 1.8 1.8 0 0 0-2.4 0c-2 1.8-2.3 4.5-2.4 7a2.8 2.8 0 0 0 .1.9L40 23.7c.1-.2.1-.4.2-.6s1.3-3.3 1.9-5A1.8 1.8 0 0 0 41 16a1.5 1.5 0 0 0-.1-1.3 1.7 1.7 0 0 0-2.3-.6c-1.6.7-3.1 1.5-4.6 2.3l-1.8 1c0-.5.1-1.1.1-1.6V15l.8-.6 2.2-1.3 4.2-2.8c1.9-1.2.2-4.1-1.7-2.9l-4 2.6-1.1.7c0-.4.1-.7.1-1.1a65.7 65.7 0 0 0 5.7-4.8 1.8 1.8 0 0 0 0-2.5 1.8 1.8 0 0 0-2.4 0 27.4 27.4 0 0 1-3.6 3.2 7.5 7.5 0 0 0-.4-1.6c-.1-.3-.4-1.4-.5-1 .7-2.1-2.6-3-3.2-.9a4.2 4.2 0 0 0 .5 2.7 2.4 2.4 0 0 1 .2.8l-1-.7H28l-.2-.3a.3.3 0 0 1-.1-.2 1.7 1.7 0 0 0-3.4 0A5 5 0 0 0 26.7 8a6 6 0 0 1 1.3.9 9.3 9.3 0 0 1 1.3 1.5h.1v.8l-1.8-1.1-3.4-2.3a1.7 1.7 0 0 0-1.7 2.9c1.2 1 2.6 1.9 3.9 2.8l2.1 1.3.5.3v.5c0 .6-.1 1.3-.1 2l-.2-.2-2.2-1.7c-1.2-1-3.1-3-4.7-1.4a1.4 1.4 0 0 0-.5 1.1 2.1 2.1 0 0 0-1.5-.3 1.7 1.7 0 0 0-1.1 2.1l.9 5.3-1.2-.6c-.2-.9-.5-1.9-.7-2.7a34.8 34.8 0 0 1-1-4.1 1.7 1.7 0 0 0-3.4 0 27.4 27.4 0 0 0 .9 3.9 3.1 3.1 0 0 0 .2.8l-1.9-1a7.5 7.5 0 0 0 0-1.5 7.8 7.8 0 0 0-.9-4 1.6 1.6 0 0 0-2.3-.6 1.8 1.8 0 0 0-.6 2.3.5.5 0 0 1 .2.4c.1.3.1.5.2.8.1.1 0 .3 0 .4a.6.6 0 0 1 .1.4l-1.4-.7c-1.9-1-3.6 1.9-1.7 2.9l.8.4a3.4 3.4 0 0 0-1.9.9 1.8 1.8 0 0 0 0 2.4 1.8 1.8 0 0 0 2.4.1h-.1c-.2 0 0-.1.1-.1H9a4.2 4.2 0 0 0 1.9-.6.8.8 0 0 0 .4-.4l2.4 1.2-.8.5A21.2 21.2 0 0 1 9.8 25a1.7 1.7 0 0 0-1.2 2.1 1.8 1.8 0 0 0 2.1 1.2 28.7 28.7 0 0 0 4-1.8l1.6-1 .8-.6 2.2 1.2c-2.5 1.3-5 2.7-7.4 4.2a1.7 1.7 0 0 0 .1 2.9 1.8 1.8 0 0 0 1.1 1l5 1.9 1.1.3-2.2 1.5a14.8 14.8 0 0 0-2.7-1.6 10.5 10.5 0 0 0-4.3-1.1 1.7 1.7 0 0 0 0 3.4 8.3 8.3 0 0 1 2.7.7l1.1.6-1.4.9a.3.3 0 0 1-.1-.2 3.8 3.8 0 0 0-2.2-1.3 23.9 23.9 0 0 0-4.5-.9 1.8 1.8 0 0 0-1.7 1.7 1.7 1.7 0 0 0 1.7 1.7l2.2.4.8.2a1.3 1.3 0 0 0-.1.6.4.4 0 0 0-.1.3l-4.9 3.2c-1.8 1.1-.2 4.1 1.7 2.9l2.7-1.7a16.6 16.6 0 0 1-.6 2.1 1.6 1.6 0 0 0 1.1 2.1 1.7 1.7 0 0 0 2.1-1.2 16 16 0 0 0 1.1-4.3v-1.1l2.5-1.5c-.2 1.3-.3 2.6-.5 3.8a1.7 1.7 0 1 0 3.4 0l.6-4.4a11 11 0 0 1 .2-1.8l3.6-2.2-.6 3.3a25.1 25.1 0 0 1-.4 2.7c-.1 1-.4 2 .2 2.9a1.7 1.7 0 0 0 2.7.3 1.3 1.3 0 0 0 .8-.2 29.6 29.6 0 0 0 4.2-2.6l1.9-1.5a13.7 13.7 0 0 1 .2 1.9c0 .3.1.6.1.8l-.3.2a11.8 11.8 0 0 0-1.9 1.1 21.1 21.1 0 0 0-3.6 3.1 1.7 1.7 0 0 0 0 2.4 1.8 1.8 0 0 0 2.4 0 16.2 16.2 0 0 1 2.8-2.5l.6-.4a21.8 21.8 0 0 0-.1 2.5l-1.3.9-3.6 2.7a1.7 1.7 0 0 0 2.4 2.4l2.5-1.9c.1 1.4.2 2.9.4 4.3s3.6 1.2 3.3-.9-.3-2.6-.4-3.9a5.2 5.2 0 0 0 1 1.1 7 7 0 0 0 3.9 1.8 1.7 1.7 0 0 0 0-3.4H38a.1.1 0 0 1-.1-.1.5.5 0 0 1-.4-.2l-.6-.4-.6-.7a14 14 0 0 1-1-1.6 2.5 2.5 0 0 0-1.5-1.2v-.7l1 .9a10.7 10.7 0 0 0 3.7 2.2 1.7 1.7 0 0 0 2.1-1.2 1.8 1.8 0 0 0-1.2-2 8.4 8.4 0 0 1-3.1-2.2l-1.4-1.5-1.1-1v-1a7.7 7.7 0 0 0-.2-1.5 17.7 17.7 0 0 0 1.7 1.2 38.7 38.7 0 0 0 4.3 2.7 2.7 2.7 0 0 0 1.2.2h.6a1.8 1.8 0 0 0 1.2-2.1l-.9-5.4c-.1-1-.3-1.9-.4-2.9a1.3 1.3 0 0 1-.1-.6 15.8 15.8 0 0 1 4.2 2.7l.3.3v.5c0 1.7.1 3.4.1 5.1a5.3 5.3 0 0 0 .4 2.8 1.8 1.8 0 0 0 3.3-.5 2 2 0 0 0-.3-1.5v-3.8l1.6 1.3a47.3 47.3 0 0 1-.1 5.3 1.6 1.6 0 0 0 1.7 1.6 1.7 1.7 0 0 0 1.7-1.6c.1-1.1.1-2.1.1-3.1l2.1 1.4c1.8 1.1 3.5-1.8 1.7-3l-3.5-2.2 2.8-.9a1.7 1.7 0 0 0 1.2-2.1 1.9 1.9 0 0 0-2.1-1.2l-3.4 1a4.4 4.4 0 0 0-1.8.9l-1.2-1 .9-.3 3.1-1.1a1.7 1.7 0 0 0 1.2-2 1.7 1.7 0 0 0-2.1-1.2 30.6 30.6 0 0 0-4.8 1.7l-1 .5c-.1-.2-.3-.3-.4-.4a12.7 12.7 0 0 0-2.7-1.8h.6a12.2 12.2 0 0 0 4.7-1.3 1.6 1.6 0 0 0 .5-2.4l-.5-.2-1.4-.5-.3.2a16.7 16.7 0 0 1-4.9 1.2 7.7 7.7 0 0 0-2.6.7l-.7.2-4.3-2 4.4-2.7a28.4 28.4 0 0 0 4.9 1.7l2.6.5.9.2a1.6 1.6 0 0 1 1.9.7 1.5 1.5 0 0 0 1.8-.8 1.8 1.8 0 0 0-.6-2.3 13.2 13.2 0 0 0-4.7-1.3 29.9 29.9 0 0 1-3.2-.9l2.6-1.7.3.2 4 2.5a1.8 1.8 0 0 0 2.3-.6 1.9 1.9 0 0 0-.6-2.4l-2.7-1.7 1.6-1zm-30-4.8c-.1 0-.1-.1 0 0zm.2.2l.3.2 1.1.9 2.1 1.7a18.8 18.8 0 0 0 2.4 1.8c.1 1.9.2 3.8.4 5.7l-5.9-3c-.5-2.5-.9-5.1-1.4-7.6a1.9 1.9 0 0 0 1 .3zm-.1 17l-.6-.2-2.8-.9-3.4-1.3a74.9 74.9 0 0 1 6.9-3.6h.1l5.3 2.7zm6.8 4.8v1.1l-2.5 2.1a19 19 0 0 1-3.3 2.2.1.1 0 0 0 .1-.1c.1-1 .2-2 .4-3s.3-1.9.4-2.9a7.6 7.6 0 0 0 .1-1.5l5.1-3.2a5.7 5.7 0 0 1 .1 1.3c0 1.4-.3 2.7-.4 4zm7.8-3.8a15.2 15.2 0 0 0 .3 2.1c.2 1 .4 2.1.5 3.1s.3 2 .5 3a17 17 0 0 1-2.2-1.5c-1.1-.7-2.2-1.9-3.5-2.4s.1-.8.1-1.3a16.8 16.8 0 0 0 .1-5zm-.6-12.7a4.5 4.5 0 0 0-.4 3v.2L32.8 28c-.3-2.2-.4-4.4-.5-6.7 1.2-.6 2.2-1.5 3.4-2.1l3-1.6c-.6 1.6-1.3 3.2-1.8 4.9z"/><path fill="#00aeef" d="M30.9 12.3h-.1l-.8.2.6-.4h.3z"/><path fill="#00aeef" stroke="#231f20" stroke-miterlimit="10" d="M50 30.8l-.5-.2-1.4-.5a1.6 1.6 0 0 1 1.9.7z"/><path fill="#00aeef" stroke="#231f20" stroke-miterlimit="10" d="M50 30.8l-.5-.2-1.4-.5a1.6 1.6 0 0 1 1.9.7z"/><path fill="#00aeef" d="M32.6 55zm1.5 0l-.4.2h.4z"/><path fill="#00aeef" stroke="#231f20" stroke-miterlimit="10" d="M7.6 22.8h-.3c-.2 0 0-.1.1-.1h.2z"/></symbol><symbol id="star" viewBox="0 0 64 64"><path fill="#fcee1f" stroke="#231f20" stroke-miterlimit="10" stroke-width="2.9" d="M32 5.5l8.6 17.4 19.3 2.8L46 39.3l3.2 19.2-17.2-9-17.2 9L18 39.3 4.1 25.7l19.3-2.8L32 5.5z"/></symbol><symbol id="typeface" viewBox="0 0 64 64"><path d="M19.1 43c-1.6 0-3.3.1-5 0s-1.2.2-1.4 1.1c-.7 2.8-1.5 5.6-2.3 8.4S9.9 54 8.5 54H1.9C.6 54 .3 53.5.6 52.3c4.1-13.2 8.1-26.4 12.1-39.6a1.4 1.4 0 0 1 1.6-1.2h10.1c1.1 0 1.3.1 1.6 1.2l7.2 23.1 5.1 16.4c.4 1.3 0 1.8-1.2 1.8h-7.5a1.2 1.2 0 0 1-1.3-1c-.9-3.1-1.9-6.2-2.8-9.3a.9.9 0 0 0-1-.7zm-4.6-7.1h9.4c-1.7-5.8-3.3-11.5-4.9-17.3zm40 14.8a10.5 10.5 0 0 1-5.6 3.5 12.2 12.2 0 0 1-5.7.2c-.5-.1-.8-.3-.9-.7-1.5-4.8-2.9-9.6-4.4-14.4a1.5 1.5 0 0 1 .3-1.1 13.7 13.7 0 0 1 7.5-3.9c2.4-.4 4.7-.6 7.1-.8h.8a3.2 3.2 0 0 0-1.9-3.7 12.2 12.2 0 0 0-3.8-.7 15.1 15.1 0 0 0-6.9 1.4c-1.2.5-1.6.4-1.9-.9s-.7-2.3-1-3.4a1.1 1.1 0 0 1 .6-1.5 26.8 26.8 0 0 1 12.8-2.1 14.1 14.1 0 0 1 6 1.6 10.1 10.1 0 0 1 5.4 8.2c.3 2.4.3 4.9.4 7.4v10.4a24.6 24.6 0 0 0 .2 2.6 1 1 0 0 1-1.1 1.2H56c-.7 0-.9-.5-1.1-1.1s-.2-1.3-.4-2.2zm-.4-9.1H54V40q.2-.7-.6-.6a14.2 14.2 0 0 0-2.9.2 8.4 8.4 0 0 0-4 1.4c-2.3 1.8-2.1 5.6.5 6.7a5.3 5.3 0 0 0 6.8-3.4 22.3 22.3 0 0 0 .3-2.7z"/></symbol><symbol id="wing-white" viewBox="0 0 64 64"><path fill="#fff" d="M57.7 9.9c-.2 3.8-2.9 6.5-5.9 8.3l-2.7 1.6h.8c2.2.4 4.5 1.7 4.8 4.1s-2.2 4.9-4.7 5.9l-4.2 1.6 2.4.5c1.8.5 4.2 1.1 4.8 3.2 1.4 4-5.1 6.3-7.8 7.3-4.6 1.7-9.3 2.9-13.9 4.5-8.8 2.8-17.5 6.5-24.1 13.1a1.3 1.3 0 0 1-2.2-.8 16.1 16.1 0 0 0 0-3.1 1.9 1.9 0 0 1-.2-.8A69.2 69.2 0 0 1 10.6 30c6-13 17.6-23.8 31.9-26.6 5.3-1 15.7-1.6 15.2 6.5z"/></symbol><symbol id="wing-black" viewBox="0 0 64 64"><path fill="#231f20" d="M59.3 9.9c-.2 3.8-2.9 6.5-5.9 8.3l-2.7 1.6h.8c2.2.4 4.5 1.7 4.8 4.1s-2.2 4.9-4.7 5.9l-4.2 1.6 2.4.5c1.8.5 4.2 1.1 4.8 3.2 1.4 4-5.1 6.3-7.9 7.3-4.5 1.7-9.2 2.9-13.8 4.5-8.8 2.8-17.5 6.5-24.1 13.1-.8.7-2.3.2-2.2-.9a16.1 16.1 0 0 0 0-3.1.8.8 0 0 1-.2-.8A67.2 67.2 0 0 1 12.2 30C18.1 17 29.7 6.2 44.1 3.4c5.3-1 15.6-1.6 15.2 6.5z"/></symbol></svg>