<svg id="Layer_1" data-name="Layer 1" xmlns="http://www.w3.org/2000/svg" width="64" height="64" viewBox="0 0 64 64"><title>logo-64</title><path d="M47.4,38.1c4-1.5,7.2-4.8,7.2-11.4,0-13-11.4-13-19-13H7.9v9H24v4.8H11.9V36H24v4.9H7.9v9H34.1V39.7h4l6.7,10.2H55.6Zm-9.2-6.8H34.1V22.6h4.1c3.3,0,6.6,0,6.6,4.4S41.8,31.3,38.2,31.3Z" fill="#231f20"/><rect x="3.8" y="0.6" width="0.6" height="3.8" fill="#231f20"/><rect x="5.8" y="-1" width="0.6" height="3.9" transform="translate(5.2 7) rotate(-90)" fill="#231f20"/><rect x="7.4" y="0.6" width="0.6" height="2.55" fill="#231f20"/><rect x="6.8" y="2" width="0.6" height="1.79" transform="translate(4.2 10) rotate(-90)" fill="#231f20"/><rect x="6.2" y="1.9" width="0.6" height="1.33" fill="#231f20"/><rect x="5.6" y="1.2" width="0.6" height="1.85" transform="translate(3.7 8) rotate(-90)" fill="#231f20"/><rect x="5" y="2.1" width="0.6" height="2.29" fill="#231f20"/><rect x="6.6" y="2.2" width="0.6" height="3.9" transform="translate(2.8 11) rotate(-90)" fill="#231f20"/><rect x="8.9" y="0.6" width="0.6" height="3.8" fill="#231f20"/><rect x="14" y="0.6" width="0.6" height="3.8" transform="translate(28.5 5.1) rotate(-180)" fill="#231f20"/><rect x="11.9" y="-1" width="0.6" height="3.9" transform="translate(11.3 13.1) rotate(-90)" fill="#231f20"/><rect x="10.3" y="0.6" width="0.6" height="2.55" transform="translate(21.1 3.8) rotate(-180)" fill="#231f20"/><rect x="10.9" y="2" width="0.6" height="1.79" transform="translate(8.3 14.1) rotate(-90)" fill="#231f20"/><rect x="11.5" y="1.9" width="0.6" height="1.33" transform="translate(23.6 5) rotate(-180)" fill="#231f20"/><rect x="12.1" y="1.2" width="0.6" height="1.85" transform="translate(10.3 14.6) rotate(-90)" fill="#231f20"/><rect x="12.8" y="2.1" width="0.6" height="2.29" transform="translate(26.1 6.6) rotate(-180)" fill="#231f20"/><rect x="11.1" y="2.2" width="0.6" height="3.9" transform="translate(7.3 15.5) rotate(-90)" fill="#231f20"/><rect x="15.1" y="0.6" width="0.6" height="3.8" fill="#231f20"/><rect x="17.2" y="2.2" width="0.6" height="3.9" transform="translate(21.6 -13.3) rotate(90)" fill="#231f20"/><rect x="18.8" y="1.9" width="0.6" height="2.55" fill="#231f20"/><rect x="18.2" y="1.3" width="0.6" height="1.79" transform="translate(20.7 -16.4) rotate(90)" fill="#231f20"/><rect x="17.6" y="1.9" width="0.6" height="1.33" fill="#231f20"/><rect x="17" y="2" width="0.6" height="1.85" transform="translate(20.2 -14.4) rotate(90)" fill="#231f20"/><rect x="16.4" y="0.6" width="0.6" height="2.29" fill="#231f20"/><rect x="18" y="-1" width="0.6" height="3.9" transform="translate(19.2 -17.4) rotate(90)" fill="#231f20"/><rect x="20.3" y="0.6" width="0.6" height="3.8" fill="#231f20"/><rect x="25.4" y="0.6" width="0.6" height="3.8" transform="translate(51.3 5) rotate(180)" fill="#231f20"/><rect x="23.3" y="2.2" width="0.6" height="3.9" transform="translate(27.7 -19.5) rotate(90)" fill="#231f20"/><rect x="21.7" y="1.9" width="0.6" height="2.55" transform="translate(43.9 6.3) rotate(180)" fill="#231f20"/><rect x="22.3" y="1.3" width="0.6" height="1.79" transform="translate(24.7 -20.4) rotate(90)" fill="#231f20"/><rect x="22.9" y="1.9" width="0.6" height="1.33" transform="translate(46.3 5.1) rotate(180)" fill="#231f20"/><rect x="23.5" y="2" width="0.6" height="1.85" transform="translate(26.7 -20.9) rotate(90)" fill="#231f20"/><rect x="24.2" y="0.6" width="0.6" height="2.29" transform="translate(48.9 3.5) rotate(180)" fill="#231f20"/><rect x="22.5" y="-1" width="0.6" height="3.9" transform="translate(23.7 -21.9) rotate(90)" fill="#231f20"/><rect x="26.6" y="0.6" width="0.6" height="3.8" fill="#231f20"/><rect x="28.7" y="-1" width="0.6" height="3.9" transform="translate(28 29.9) rotate(-90)" fill="#231f20"/><rect x="30.3" y="0.6" width="0.6" height="2.55" fill="#231f20"/><rect x="29.7" y="2" width="0.6" height="1.79" transform="translate(27.1 32.9) rotate(-90)" fill="#231f20"/><rect x="29.1" y="1.9" width="0.6" height="1.33" fill="#231f20"/><rect x="28.5" y="1.2" width="0.6" height="1.85" transform="translate(26.6 30.9) rotate(-90)" fill="#231f20"/><rect x="27.8" y="2.1" width="0.6" height="2.29" fill="#231f20"/><rect x="29.5" y="2.2" width="0.6" height="3.9" transform="translate(25.6 33.9) rotate(-90)" fill="#231f20"/><rect x="31.7" y="0.6" width="0.6" height="3.8" fill="#231f20"/><rect x="36.8" y="0.6" width="0.6" height="3.8" transform="translate(74.2 5.1) rotate(-180)" fill="#231f20"/><rect x="34.8" y="-1" width="0.6" height="3.9" transform="translate(34.2 36) rotate(-90)" fill="#231f20"/><rect x="33.1" y="0.6" width="0.6" height="2.55" transform="translate(66.9 3.8) rotate(-180)" fill="#231f20"/><rect x="33.7" y="2" width="0.6" height="1.79" transform="translate(31.1 36.9) rotate(-90)" fill="#231f20"/><rect x="34.4" y="1.9" width="0.6" height="1.33" transform="translate(69.3 5) rotate(-180)" fill="#231f20"/><rect x="35" y="1.2" width="0.6" height="1.85" transform="translate(33.1 37.4) rotate(-90)" fill="#231f20"/><rect x="35.6" y="2.1" width="0.6" height="2.29" transform="translate(71.8 6.6) rotate(-180)" fill="#231f20"/><rect x="34" y="2.2" width="0.6" height="3.9" transform="translate(30.1 38.4) rotate(-90)" fill="#231f20"/><rect x="38" y="0.6" width="0.6" height="3.8" fill="#231f20"/><rect x="40.1" y="2.2" width="0.6" height="3.9" transform="translate(44.5 -36.2) rotate(90)" fill="#231f20"/><rect x="41.7" y="1.9" width="0.6" height="2.55" fill="#231f20"/><rect x="41.1" y="1.3" width="0.6" height="1.79" transform="translate(43.6 -39.2) rotate(90)" fill="#231f20"/><rect x="40.5" y="1.9" width="0.6" height="1.33" fill="#231f20"/><rect x="39.9" y="2" width="0.6" height="1.85" transform="translate(43.1 -37.2) rotate(90)" fill="#231f20"/><rect x="39.2" y="0.6" width="0.6" height="2.29" fill="#231f20"/><rect x="40.9" y="-1" width="0.6" height="3.9" transform="translate(42.1 -40.3) rotate(90)" fill="#231f20"/><rect x="43.1" y="0.6" width="0.6" height="3.8" fill="#231f20"/><rect x="48.2" y="0.6" width="0.6" height="3.8" transform="translate(97 5) rotate(180)" fill="#231f20"/><rect x="46.2" y="2.2" width="0.6" height="3.9" transform="translate(50.6 -42.4) rotate(90)" fill="#231f20"/><rect x="44.5" y="1.9" width="0.6" height="2.55" transform="translate(89.7 6.3) rotate(180)" fill="#231f20"/><rect x="45.1" y="1.3" width="0.6" height="1.79" transform="translate(47.6 -43.3) rotate(90)" fill="#231f20"/><rect x="45.8" y="1.9" width="0.6" height="1.33" transform="translate(92.1 5.1) rotate(180)" fill="#231f20"/><rect x="46.4" y="2" width="0.6" height="1.85" transform="translate(49.6 -43.8) rotate(90)" fill="#231f20"/><rect x="47" y="0.6" width="0.6" height="2.29" transform="translate(94.6 3.5) rotate(180)" fill="#231f20"/><rect x="45.4" y="-1" width="0.6" height="3.9" transform="translate(46.6 -44.7) rotate(90)" fill="#231f20"/><rect x="49.5" y="0.6" width="0.6" height="3.8" fill="#231f20"/><rect x="51.5" y="-1" width="0.6" height="3.9" transform="translate(50.9 52.7) rotate(-90)" fill="#231f20"/><rect x="53.1" y="0.6" width="0.6" height="2.55" fill="#231f20"/><rect x="52.5" y="2" width="0.6" height="1.79" transform="translate(49.9 55.7) rotate(-90)" fill="#231f20"/><rect x="51.9" y="1.9" width="0.6" height="1.33" fill="#231f20"/><rect x="51.3" y="1.2" width="0.6" height="1.85" transform="translate(49.4 53.7) rotate(-90)" fill="#231f20"/><rect x="50.7" y="2.1" width="0.6" height="2.29" fill="#231f20"/><rect x="52.3" y="2.2" width="0.6" height="3.9" transform="translate(48.5 56.8) rotate(-90)" fill="#231f20"/><rect x="54.6" y="0.6" width="0.6" height="3.8" fill="#231f20"/><rect x="59.7" y="0.6" width="0.6" height="3.8" transform="translate(119.9 5.1) rotate(-180)" fill="#231f20"/><rect x="57.6" y="-1" width="0.6" height="3.9" transform="translate(57 58.8) rotate(-90)" fill="#231f20"/><rect x="56" y="0.6" width="0.6" height="2.55" transform="translate(112.5 3.8) rotate(-180)" fill="#231f20"/><rect x="56.6" y="2" width="0.6" height="1.79" transform="translate(54 59.8) rotate(-90)" fill="#231f20"/><rect x="57.2" y="1.9" width="0.6" height="1.33" transform="translate(115 5) rotate(-180)" fill="#231f20"/><rect x="57.8" y="1.2" width="0.6" height="1.85" transform="translate(56 60.3) rotate(-90)" fill="#231f20"/><rect x="58.5" y="2.1" width="0.6" height="2.29" transform="translate(117.5 6.6) rotate(-180)" fill="#231f20"/><rect x="56.8" y="2.2" width="0.6" height="3.9" transform="translate(52.9 61.2) rotate(-90)" fill="#231f20"/><rect x="2.1" y="58.2" width="0.6" height="3.8" transform="translate(-57.7 62.5) rotate(-90)" fill="#231f20"/><rect x="0.5" y="56.1" width="0.6" height="3.9" transform="translate(1.6 116.1) rotate(-180)" fill="#231f20"/><rect x="1.5" y="55.1" width="0.6" height="2.55" transform="translate(-54.6 58.2) rotate(-90)" fill="#231f20"/><rect x="2.5" y="56.1" width="0.6" height="1.79" transform="translate(5.6 114) rotate(-180)" fill="#231f20"/><rect x="2.1" y="56.9" width="0.6" height="1.33" transform="translate(-55.2 60) rotate(-90)" fill="#231f20"/><rect x="1.8" y="57.3" width="0.6" height="1.85" transform="translate(4.1 116.5) rotate(-180)" fill="#231f20"/><rect x="2.9" y="57.7" width="0.6" height="2.29" transform="translate(-55.7 62.1) rotate(-90)" fill="#231f20"/><rect x="3.7" y="55.3" width="0.6" height="3.9" transform="translate(8.1 114.4) rotate(-180)" fill="#231f20"/><rect x="2.1" y="53.1" width="0.6" height="3.8" transform="translate(-52.5 57.4) rotate(-90)" fill="#231f20"/><rect x="2.1" y="48" width="0.6" height="3.8" transform="translate(52.3 47.4) rotate(90)" fill="#231f20"/><rect x="0.5" y="50" width="0.6" height="3.9" transform="translate(1.6 103.8) rotate(-180)" fill="#231f20"/><rect x="1.5" y="52.3" width="0.6" height="2.55" transform="translate(55.4 51.8) rotate(90)" fill="#231f20"/><rect x="2.5" y="52.1" width="0.6" height="1.79" transform="translate(5.6 105.9) rotate(-180)" fill="#231f20"/><rect x="2.1" y="51.7" width="0.6" height="1.33" transform="translate(54.8 49.9) rotate(90)" fill="#231f20"/><rect x="1.8" y="50.8" width="0.6" height="1.85" transform="translate(4.1 103.4) rotate(-180)" fill="#231f20"/><rect x="2.9" y="49.9" width="0.6" height="2.29" transform="translate(54.3 47.9) rotate(90)" fill="#231f20"/><rect x="3.7" y="50.8" width="0.6" height="3.9" transform="translate(8.1 105.5) rotate(-180)" fill="#231f20"/><rect x="2.1" y="46.8" width="0.6" height="3.8" transform="translate(-46.3 51.1) rotate(-90)" fill="#231f20"/><rect x="3.7" y="44.7" width="0.6" height="3.9" fill="#231f20"/><rect x="2.7" y="43.7" width="0.6" height="2.55" transform="translate(-42 48) rotate(-90)" fill="#231f20"/><rect x="1.8" y="44.7" width="0.6" height="1.79" fill="#231f20"/><rect x="2.1" y="45.5" width="0.6" height="1.33" transform="translate(-43.8 48.6) rotate(-90)" fill="#231f20"/><rect x="2.5" y="45.9" width="0.6" height="1.85" fill="#231f20"/><rect x="1.4" y="46.3" width="0.6" height="2.29" transform="translate(-45.8 49.1) rotate(-90)" fill="#231f20"/><rect x="0.5" y="43.9" width="0.6" height="3.9" fill="#231f20"/><rect x="2.1" y="41.7" width="0.6" height="3.8" transform="translate(-41.2 46) rotate(-90)" fill="#231f20"/><rect x="2.1" y="36.6" width="0.6" height="3.8" transform="translate(40.9 36.1) rotate(90)" fill="#231f20"/><rect x="3.7" y="38.6" width="0.6" height="3.9" fill="#231f20"/><rect x="2.7" y="40.9" width="0.6" height="2.55" transform="translate(45.2 39.1) rotate(90)" fill="#231f20"/><rect x="1.8" y="40.7" width="0.6" height="1.79" fill="#231f20"/><rect x="2.1" y="40.3" width="0.6" height="1.33" transform="translate(43.4 38.5) rotate(90)" fill="#231f20"/><rect x="2.5" y="39.4" width="0.6" height="1.85" fill="#231f20"/><rect x="1.4" y="38.5" width="0.6" height="2.29" transform="translate(41.3 38) rotate(90)" fill="#231f20"/><rect x="0.5" y="39.4" width="0.6" height="3.9" fill="#231f20"/><rect x="2.1" y="35.3" width="0.6" height="3.8" transform="translate(-34.8 39.6) rotate(-90)" fill="#231f20"/><rect x="0.5" y="33.2" width="0.6" height="3.9" transform="translate(1.6 70.4) rotate(-180)" fill="#231f20"/><rect x="1.5" y="32.2" width="0.6" height="2.55" transform="translate(-31.7 35.3) rotate(-90)" fill="#231f20"/><rect x="2.5" y="33.2" width="0.6" height="1.79" transform="translate(5.6 68.3) rotate(-180)" fill="#231f20"/><rect x="2.1" y="34.1" width="0.6" height="1.33" transform="translate(-32.3 37.2) rotate(-90)" fill="#231f20"/><rect x="1.8" y="34.4" width="0.6" height="1.85" transform="translate(4.1 70.7) rotate(-180)" fill="#231f20"/><rect x="2.9" y="34.9" width="0.6" height="2.29" transform="translate(-32.8 39.2) rotate(-90)" fill="#231f20"/><rect x="3.8" y="32.4" width="0.6" height="3.9" transform="translate(8.1 68.7) rotate(-180)" fill="#231f20"/><rect x="2.1" y="30.2" width="0.6" height="3.8" transform="translate(-29.7 34.5) rotate(-90)" fill="#231f20"/><rect x="2.1" y="25.1" width="0.6" height="3.8" transform="translate(29.4 24.6) rotate(90)" fill="#231f20"/><rect x="0.5" y="27.1" width="0.6" height="3.9" transform="translate(1.6 58.1) rotate(-180)" fill="#231f20"/><rect x="1.5" y="29.4" width="0.6" height="2.55" transform="translate(32.5 28.9) rotate(90)" fill="#231f20"/><rect x="2.5" y="29.2" width="0.6" height="1.79" transform="translate(5.6 60.2) rotate(-180)" fill="#231f20"/><rect x="2.1" y="28.8" width="0.6" height="1.33" transform="translate(31.9 27.1) rotate(90)" fill="#231f20"/><rect x="1.8" y="27.9" width="0.6" height="1.85" transform="translate(4.1 57.7) rotate(-180)" fill="#231f20"/><rect x="2.9" y="27.1" width="0.6" height="2.29" transform="translate(31.4 25) rotate(90)" fill="#231f20"/><rect x="3.8" y="27.9" width="0.6" height="3.9" transform="translate(8.1 59.7) rotate(-180)" fill="#231f20"/><rect x="2.1" y="23.9" width="0.6" height="3.8" transform="translate(-23.4 28.2) rotate(-90)" fill="#231f20"/><rect x="3.7" y="21.8" width="0.6" height="3.9" fill="#231f20"/><rect x="2.8" y="20.8" width="0.6" height="2.55" transform="translate(-19.1 25.2) rotate(-90)" fill="#231f20"/><rect x="1.8" y="21.8" width="0.6" height="1.79" fill="#231f20"/><rect x="2.1" y="22.7" width="0.6" height="1.33" transform="translate(-20.9 25.8) rotate(-90)" fill="#231f20"/><rect x="2.5" y="23" width="0.6" height="1.85" fill="#231f20"/><rect x="1.4" y="23.5" width="0.6" height="2.29" transform="translate(-22.9 26.3) rotate(-90)" fill="#231f20"/><rect x="0.5" y="21" width="0.6" height="3.9" fill="#231f20"/><rect x="2.1" y="18.8" width="0.6" height="3.8" transform="translate(-18.3 23.1) rotate(-90)" fill="#231f20"/><rect x="2.1" y="13.7" width="0.6" height="3.8" transform="translate(18 13.2) rotate(90)" fill="#231f20"/><rect x="3.7" y="15.7" width="0.6" height="3.9" fill="#231f20"/><rect x="2.8" y="18" width="0.6" height="2.55" transform="translate(22.3 16.3) rotate(90)" fill="#231f20"/><rect x="1.8" y="17.8" width="0.6" height="1.79" fill="#231f20"/><rect x="2.1" y="17.4" width="0.6" height="1.33" transform="translate(20.5 15.7) rotate(90)" fill="#231f20"/><rect x="2.5" y="16.5" width="0.6" height="1.85" fill="#231f20"/><rect x="1.4" y="15.7" width="0.6" height="2.29" transform="translate(18.5 15.2) rotate(90)" fill="#231f20"/><rect x="0.5" y="16.5" width="0.6" height="3.9" fill="#231f20"/><rect x="2.1" y="12.5" width="0.6" height="3.8" transform="translate(-11.9 16.8) rotate(-90)" fill="#231f20"/><rect x="0.5" y="10.4" width="0.6" height="3.9" transform="translate(1.6 24.7) rotate(-180)" fill="#231f20"/><rect x="1.5" y="9.4" width="0.6" height="2.55" transform="translate(-8.9 12.5) rotate(-90)" fill="#231f20"/><rect x="2.5" y="10.4" width="0.6" height="1.79" transform="translate(5.6 22.6) rotate(-180)" fill="#231f20"/><rect x="2.1" y="11.2" width="0.6" height="1.33" transform="translate(-9.5 14.3) rotate(-90)" fill="#231f20"/><rect x="1.8" y="11.6" width="0.6" height="1.85" transform="translate(4.1 25.1) rotate(-180)" fill="#231f20"/><rect x="2.9" y="12" width="0.6" height="2.29" transform="translate(-10 16.4) rotate(-90)" fill="#231f20"/><rect x="3.8" y="9.6" width="0.6" height="3.9" transform="translate(8.1 23) rotate(-180)" fill="#231f20"/><rect x="2.1" y="7.4" width="0.6" height="3.8" transform="translate(-6.8 11.7) rotate(-90)" fill="#231f20"/><rect x="2.1" y="2.3" width="0.6" height="3.8" transform="translate(6.6 1.7) rotate(90)" fill="#231f20"/><rect x="0.5" y="4.3" width="0.6" height="3.9" transform="translate(1.6 12.4) rotate(-180)" fill="#231f20"/><rect x="1.5" y="6.6" width="0.6" height="2.55" transform="translate(9.7 6.1) rotate(90)" fill="#231f20"/><rect x="2.5" y="6.4" width="0.6" height="1.79" transform="translate(5.6 14.5) rotate(-180)" fill="#231f20"/><rect x="2.1" y="6" width="0.6" height="1.33" transform="translate(9.1 4.2) rotate(90)" fill="#231f20"/><rect x="1.8" y="5.1" width="0.6" height="1.85" transform="translate(4.1 12) rotate(-180)" fill="#231f20"/><rect x="2.9" y="4.2" width="0.6" height="2.29" transform="translate(8.6 2.2) rotate(90)" fill="#231f20"/><rect x="3.8" y="5.1" width="0.6" height="3.9" transform="translate(8.1 14.1) rotate(-180)" fill="#231f20"/><rect x="59.7" y="59.8" width="0.6" height="3.8" transform="translate(120 123.4) rotate(-180)" fill="#231f20"/><rect x="57.7" y="61.4" width="0.6" height="3.9" transform="translate(121.3 5.4) rotate(90)" fill="#231f20"/><rect x="56" y="61" width="0.6" height="2.55" transform="translate(112.6 124.6) rotate(-180)" fill="#231f20"/><rect x="56.6" y="60.4" width="0.6" height="1.79" transform="translate(118.2 4.5) rotate(90)" fill="#231f20"/><rect x="57.2" y="61" width="0.6" height="1.33" transform="translate(115 123.4) rotate(-180)" fill="#231f20"/><rect x="57.8" y="61.2" width="0.6" height="1.85" transform="translate(120.2 4) rotate(90)" fill="#231f20"/><rect x="58.5" y="59.8" width="0.6" height="2.29" transform="translate(117.5 121.9) rotate(-180)" fill="#231f20"/><rect x="56.8" y="58.1" width="0.6" height="3.9" transform="translate(117.2 3) rotate(90)" fill="#231f20"/><rect x="54.6" y="59.8" width="0.6" height="3.8" transform="translate(109.7 123.4) rotate(-180)" fill="#231f20"/><rect x="49.5" y="59.8" width="0.6" height="3.8" fill="#231f20"/><rect x="51.5" y="61.4" width="0.6" height="3.9" transform="translate(115.1 11.5) rotate(90)" fill="#231f20"/><rect x="53.2" y="61" width="0.6" height="2.55" fill="#231f20"/><rect x="52.6" y="60.4" width="0.6" height="1.79" transform="translate(114.2 8.5) rotate(90)" fill="#231f20"/><rect x="52" y="61" width="0.6" height="1.33" fill="#231f20"/><rect x="51.3" y="61.2" width="0.6" height="1.85" transform="translate(113.7 10.5) rotate(90)" fill="#231f20"/><rect x="50.7" y="59.8" width="0.6" height="2.29" fill="#231f20"/><rect x="52.3" y="58.1" width="0.6" height="3.9" transform="translate(112.7 7.5) rotate(90)" fill="#231f20"/><rect x="48.3" y="59.8" width="0.6" height="3.8" transform="translate(97.2 123.4) rotate(-180)" fill="#231f20"/><rect x="46.3" y="58.2" width="0.6" height="3.9" transform="translate(-13.6 106.6) rotate(-90)" fill="#231f20"/><rect x="44.6" y="59.8" width="0.6" height="2.55" transform="translate(89.8 122.2) rotate(-180)" fill="#231f20"/><rect x="45.2" y="61.2" width="0.6" height="1.79" transform="translate(-16.6 107.6) rotate(-90)" fill="#231f20"/><rect x="45.8" y="61" width="0.6" height="1.33" transform="translate(92.2 123.4) rotate(-180)" fill="#231f20"/><rect x="46.4" y="60.4" width="0.6" height="1.85" transform="translate(-14.6 108.1) rotate(-90)" fill="#231f20"/><rect x="47.1" y="61.3" width="0.6" height="2.29" transform="translate(94.7 124.9) rotate(-180)" fill="#231f20"/><rect x="45.4" y="61.4" width="0.6" height="3.9" transform="translate(-17.6 109) rotate(-90)" fill="#231f20"/><rect x="43.2" y="59.8" width="0.6" height="3.8" transform="translate(86.9 123.4) rotate(-180)" fill="#231f20"/><rect x="38.1" y="59.8" width="0.6" height="3.8" fill="#231f20"/><rect x="40.1" y="58.2" width="0.6" height="3.9" transform="translate(-19.7 100.5) rotate(-90)" fill="#231f20"/><rect x="41.8" y="59.8" width="0.6" height="2.55" fill="#231f20"/><rect x="41.2" y="61.2" width="0.6" height="1.79" transform="translate(-20.6 103.5) rotate(-90)" fill="#231f20"/><rect x="40.6" y="61" width="0.6" height="1.33" fill="#231f20"/><rect x="39.9" y="60.4" width="0.6" height="1.85" transform="translate(-21.1 101.5) rotate(-90)" fill="#231f20"/><rect x="39.3" y="61.3" width="0.6" height="2.29" fill="#231f20"/><rect x="40.9" y="61.4" width="0.6" height="3.9" transform="translate(-22.1 104.6) rotate(-90)" fill="#231f20"/><rect x="36.8" y="59.8" width="0.6" height="3.8" transform="translate(74.2 123.4) rotate(-180)" fill="#231f20"/><rect x="34.8" y="61.4" width="0.6" height="3.9" transform="translate(98.4 28.2) rotate(90)" fill="#231f20"/><rect x="33.1" y="61" width="0.6" height="2.55" transform="translate(66.8 124.6) rotate(-180)" fill="#231f20"/><rect x="33.7" y="60.4" width="0.6" height="1.79" transform="translate(95.4 27.3) rotate(90)" fill="#231f20"/><rect x="34.3" y="61" width="0.6" height="1.33" transform="translate(69.3 123.4) rotate(-180)" fill="#231f20"/><rect x="35" y="61.2" width="0.6" height="1.85" transform="translate(97.3 26.8) rotate(90)" fill="#231f20"/><rect x="35.6" y="59.8" width="0.6" height="2.29" transform="translate(71.8 121.9) rotate(-180)" fill="#231f20"/><rect x="33.9" y="58.1" width="0.6" height="3.9" transform="translate(94.3 25.8) rotate(90)" fill="#231f20"/><rect x="31.7" y="59.8" width="0.6" height="3.8" transform="translate(64 123.4) rotate(-180)" fill="#231f20"/><rect x="26.6" y="59.8" width="0.6" height="3.8" fill="#231f20"/><rect x="28.6" y="61.4" width="0.6" height="3.9" transform="translate(92.2 34.4) rotate(90)" fill="#231f20"/><rect x="30.3" y="61" width="0.6" height="2.55" fill="#231f20"/><rect x="29.7" y="60.4" width="0.6" height="1.79" transform="translate(91.3 31.4) rotate(90)" fill="#231f20"/><rect x="29.1" y="61" width="0.6" height="1.33" fill="#231f20"/><rect x="28.5" y="61.2" width="0.6" height="1.85" transform="translate(90.8 33.3) rotate(90)" fill="#231f20"/><rect x="27.8" y="59.8" width="0.6" height="2.29" fill="#231f20"/><rect x="29.5" y="58.1" width="0.6" height="3.9" transform="translate(89.8 30.3) rotate(90)" fill="#231f20"/><rect x="25.4" y="59.8" width="0.6" height="3.8" transform="translate(51.4 123.4) rotate(-180)" fill="#231f20"/><rect x="23.4" y="58.1" width="0.6" height="3.9" transform="translate(-36.4 83.8) rotate(-90)" fill="#231f20"/><rect x="21.7" y="59.8" width="0.6" height="2.55" transform="translate(44 122.2) rotate(-180)" fill="#231f20"/><rect x="22.3" y="61.2" width="0.6" height="1.79" transform="translate(-39.4 84.7) rotate(-90)" fill="#231f20"/><rect x="22.9" y="61" width="0.6" height="1.33" transform="translate(46.5 123.4) rotate(-180)" fill="#231f20"/><rect x="23.6" y="60.4" width="0.6" height="1.85" transform="translate(-37.5 85.2) rotate(-90)" fill="#231f20"/><rect x="24.2" y="61.3" width="0.6" height="2.29" transform="translate(49 124.9) rotate(-180)" fill="#231f20"/><rect x="22.6" y="61.4" width="0.6" height="3.9" transform="translate(-40.5 86.2) rotate(-90)" fill="#231f20"/><rect x="20.3" y="59.8" width="0.6" height="3.8" transform="translate(41.2 123.4) rotate(-180)" fill="#231f20"/><rect x="15.2" y="59.8" width="0.6" height="3.8" fill="#231f20"/><rect x="17.2" y="58.1" width="0.6" height="3.9" transform="translate(-42.6 77.6) rotate(-90)" fill="#231f20"/><rect x="18.9" y="59.8" width="0.6" height="2.55" fill="#231f20"/><rect x="18.3" y="61.2" width="0.6" height="1.79" transform="translate(-43.5 80.7) rotate(-90)" fill="#231f20"/><rect x="17.7" y="61" width="0.6" height="1.33" fill="#231f20"/><rect x="17.1" y="60.4" width="0.6" height="1.85" transform="translate(-44 78.7) rotate(-90)" fill="#231f20"/><rect x="16.4" y="61.3" width="0.6" height="2.29" fill="#231f20"/><rect x="18.1" y="61.4" width="0.6" height="3.9" transform="translate(-45 81.7) rotate(-90)" fill="#231f20"/><rect x="14" y="59.8" width="0.6" height="3.8" transform="translate(28.5 123.4) rotate(-180)" fill="#231f20"/><rect x="11.9" y="61.4" width="0.6" height="3.9" transform="translate(75.5 51.1) rotate(90)" fill="#231f20"/><rect x="10.3" y="61" width="0.6" height="2.55" transform="translate(21.2 124.6) rotate(-180)" fill="#231f20"/><rect x="10.9" y="60.4" width="0.6" height="1.79" transform="translate(72.5 50.1) rotate(90)" fill="#231f20"/><rect x="11.5" y="61" width="0.6" height="1.33" transform="translate(23.6 123.4) rotate(-180)" fill="#231f20"/><rect x="12.1" y="61.2" width="0.6" height="1.85" transform="translate(74.5 49.7) rotate(90)" fill="#231f20"/><rect x="12.8" y="59.8" width="0.6" height="2.29" transform="translate(26.1 121.9) rotate(-180)" fill="#231f20"/><rect x="11.1" y="58.1" width="0.6" height="3.9" transform="translate(71.5 48.7) rotate(90)" fill="#231f20"/><rect x="8.9" y="59.8" width="0.6" height="3.8" transform="translate(18.3 123.4) rotate(-180)" fill="#231f20"/><rect x="3.8" y="59.8" width="0.6" height="3.8" fill="#231f20"/><rect x="5.8" y="61.4" width="0.6" height="3.9" transform="translate(69.4 57.2) rotate(90)" fill="#231f20"/><rect x="7.5" y="61" width="0.6" height="2.55" fill="#231f20"/><rect x="6.9" y="60.4" width="0.6" height="1.79" transform="translate(68.5 54.2) rotate(90)" fill="#231f20"/><rect x="6.2" y="61" width="0.6" height="1.33" fill="#231f20"/><rect x="5.6" y="61.2" width="0.6" height="1.85" transform="translate(68 56.2) rotate(90)" fill="#231f20"/><rect x="5" y="59.8" width="0.6" height="2.29" fill="#231f20"/><rect x="6.6" y="58.1" width="0.6" height="3.9" transform="translate(67 53.2) rotate(90)" fill="#231f20"/><rect x="61.3" y="2.2" width="0.6" height="3.8" transform="translate(65.7 -57.4) rotate(90)" fill="#231f20"/><rect x="62.9" y="4.2" width="0.6" height="3.9" fill="#231f20"/><rect x="61.9" y="6.6" width="0.6" height="2.55" transform="translate(70 -54.4) rotate(90)" fill="#231f20"/><rect x="60.9" y="6.3" width="0.6" height="1.79" fill="#231f20"/><rect x="61.3" y="6" width="0.6" height="1.33" transform="translate(68.2 -55) rotate(90)" fill="#231f20"/><rect x="61.7" y="5.1" width="0.6" height="1.85" fill="#231f20"/><rect x="60.5" y="4.2" width="0.6" height="2.29" transform="translate(66.2 -55.5) rotate(90)" fill="#231f20"/><rect x="59.7" y="5.1" width="0.6" height="3.9" fill="#231f20"/><rect x="61.3" y="7.3" width="0.6" height="3.8" transform="translate(70.8 -52.3) rotate(90)" fill="#231f20"/><rect x="61.3" y="12.5" width="0.6" height="3.8" transform="translate(47.2 75.9) rotate(-90)" fill="#231f20"/><rect x="62.9" y="10.4" width="0.6" height="3.9" fill="#231f20"/><rect x="61.9" y="9.4" width="0.6" height="2.55" transform="translate(51.5 72.9) rotate(-90)" fill="#231f20"/><rect x="60.9" y="10.4" width="0.6" height="1.79" fill="#231f20"/><rect x="61.3" y="11.2" width="0.6" height="1.33" transform="translate(49.7 73.5) rotate(-90)" fill="#231f20"/><rect x="61.7" y="11.6" width="0.6" height="1.85" fill="#231f20"/><rect x="60.5" y="12" width="0.6" height="2.29" transform="translate(47.7 74) rotate(-90)" fill="#231f20"/><rect x="59.7" y="9.5" width="0.6" height="3.9" fill="#231f20"/><rect x="61.3" y="13.6" width="0.6" height="3.8" transform="translate(77.1 -46) rotate(90)" fill="#231f20"/><rect x="59.7" y="15.6" width="0.6" height="3.9" transform="translate(119.9 35.1) rotate(-180)" fill="#231f20"/><rect x="60.7" y="18" width="0.6" height="2.55" transform="translate(80.2 -41.7) rotate(90)" fill="#231f20"/><rect x="61.7" y="17.7" width="0.6" height="1.79" transform="translate(123.9 37.3) rotate(-180)" fill="#231f20"/><rect x="61.3" y="17.4" width="0.6" height="1.33" transform="translate(79.6 -43.6) rotate(90)" fill="#231f20"/><rect x="60.9" y="16.5" width="0.6" height="1.85" transform="translate(122.4 34.8) rotate(-180)" fill="#231f20"/><rect x="62.1" y="15.6" width="0.6" height="2.29" transform="translate(79.1 -45.6) rotate(90)" fill="#231f20"/><rect x="62.9" y="16.5" width="0.6" height="3.9" transform="translate(126.4 36.8) rotate(-180)" fill="#231f20"/><rect x="61.3" y="18.7" width="0.6" height="3.8" transform="translate(82.2 -40.9) rotate(90)" fill="#231f20"/><rect x="61.3" y="23.9" width="0.6" height="3.8" transform="translate(35.8 87.3) rotate(-90)" fill="#231f20"/><rect x="59.7" y="21.8" width="0.6" height="3.9" transform="translate(119.9 47.4) rotate(-180)" fill="#231f20"/><rect x="60.7" y="20.8" width="0.6" height="2.55" transform="translate(38.9 83) rotate(-90)" fill="#231f20"/><rect x="61.7" y="21.8" width="0.6" height="1.79" transform="translate(123.9 45.3) rotate(-180)" fill="#231f20"/><rect x="61.3" y="22.6" width="0.6" height="1.33" transform="translate(38.3 84.8) rotate(-90)" fill="#231f20"/><rect x="60.9" y="23" width="0.6" height="1.85" transform="translate(122.4 47.8) rotate(-180)" fill="#231f20"/><rect x="62.1" y="23.4" width="0.6" height="2.29" transform="translate(37.8 86.9) rotate(-90)" fill="#231f20"/><rect x="62.9" y="20.9" width="0.6" height="3.9" transform="translate(126.4 45.8) rotate(-180)" fill="#231f20"/><rect x="61.3" y="25.1" width="0.6" height="3.8" transform="translate(88.6 -34.6) rotate(90)" fill="#231f20"/><rect x="62.9" y="27.1" width="0.6" height="3.9" fill="#231f20"/><rect x="61.9" y="29.4" width="0.6" height="2.55" transform="translate(92.9 -31.5) rotate(90)" fill="#231f20"/><rect x="60.9" y="29.2" width="0.6" height="1.79" fill="#231f20"/><rect x="61.3" y="28.8" width="0.6" height="1.33" transform="translate(91.1 -32.1) rotate(90)" fill="#231f20"/><rect x="61.7" y="27.9" width="0.6" height="1.85" fill="#231f20"/><rect x="60.5" y="27.1" width="0.6" height="2.29" transform="translate(89 -32.6) rotate(90)" fill="#231f20"/><rect x="59.7" y="27.9" width="0.6" height="3.9" fill="#231f20"/><rect x="61.3" y="30.2" width="0.6" height="3.8" transform="translate(93.7 -29.5) rotate(90)" fill="#231f20"/><rect x="61.3" y="35.3" width="0.6" height="3.8" transform="translate(24.3 98.8) rotate(-90)" fill="#231f20"/><rect x="62.9" y="33.2" width="0.6" height="3.9" fill="#231f20"/><rect x="61.9" y="32.3" width="0.6" height="2.55" transform="translate(28.7 95.7) rotate(-90)" fill="#231f20"/><rect x="60.9" y="33.2" width="0.6" height="1.79" fill="#231f20"/><rect x="61.3" y="34.1" width="0.6" height="1.33" transform="translate(26.8 96.3) rotate(-90)" fill="#231f20"/><rect x="61.7" y="34.5" width="0.6" height="1.85" fill="#231f20"/><rect x="60.5" y="34.9" width="0.6" height="2.29" transform="translate(24.8 96.8) rotate(-90)" fill="#231f20"/><rect x="59.7" y="32.4" width="0.6" height="3.9" fill="#231f20"/><rect x="61.3" y="36.5" width="0.6" height="3.8" transform="translate(100 -23.2) rotate(90)" fill="#231f20"/><rect x="59.7" y="38.5" width="0.6" height="3.9" transform="translate(119.9 80.9) rotate(-180)" fill="#231f20"/><rect x="60.7" y="40.8" width="0.6" height="2.55" transform="translate(103.1 -18.9) rotate(90)" fill="#231f20"/><rect x="61.7" y="40.6" width="0.6" height="1.79" transform="translate(123.9 83) rotate(-180)" fill="#231f20"/><rect x="61.3" y="40.2" width="0.6" height="1.33" transform="translate(102.5 -20.7) rotate(90)" fill="#231f20"/><rect x="60.9" y="39.3" width="0.6" height="1.85" transform="translate(122.4 80.5) rotate(-180)" fill="#231f20"/><rect x="62" y="38.5" width="0.6" height="2.29" transform="translate(102 -22.7) rotate(90)" fill="#231f20"/><rect x="62.9" y="39.3" width="0.6" height="3.9" transform="translate(126.4 82.6) rotate(-180)" fill="#231f20"/><rect x="61.3" y="41.6" width="0.6" height="3.8" transform="translate(105.1 -18.1) rotate(90)" fill="#231f20"/><rect x="61.3" y="46.7" width="0.6" height="3.8" transform="translate(13 110.2) rotate(-90)" fill="#231f20"/><rect x="59.7" y="44.6" width="0.6" height="3.9" transform="translate(119.9 93.2) rotate(-180)" fill="#231f20"/><rect x="60.7" y="43.7" width="0.6" height="2.55" transform="translate(16 105.9) rotate(-90)" fill="#231f20"/><rect x="61.7" y="44.6" width="0.6" height="1.79" transform="translate(123.9 91.1) rotate(-180)" fill="#231f20"/><rect x="61.3" y="45.5" width="0.6" height="1.33" transform="translate(15.4 107.7) rotate(-90)" fill="#231f20"/><rect x="60.9" y="45.9" width="0.6" height="1.85" transform="translate(122.4 93.6) rotate(-180)" fill="#231f20"/><rect x="62" y="46.3" width="0.6" height="2.29" transform="translate(14.9 109.7) rotate(-90)" fill="#231f20"/><rect x="62.9" y="43.8" width="0.6" height="3.9" transform="translate(126.4 91.5) rotate(-180)" fill="#231f20"/><rect x="61.3" y="47.9" width="0.6" height="3.8" transform="translate(111.4 -11.7) rotate(90)" fill="#231f20"/><rect x="62.9" y="49.9" width="0.6" height="3.9" fill="#231f20"/><rect x="61.9" y="52.3" width="0.6" height="2.55" transform="translate(115.7 -8.7) rotate(90)" fill="#231f20"/><rect x="60.9" y="52" width="0.6" height="1.79" fill="#231f20"/><rect x="61.3" y="51.7" width="0.6" height="1.33" transform="translate(113.9 -9.3) rotate(90)" fill="#231f20"/><rect x="61.7" y="50.8" width="0.6" height="1.85" fill="#231f20"/><rect x="60.5" y="49.9" width="0.6" height="2.29" transform="translate(111.9 -9.8) rotate(90)" fill="#231f20"/><rect x="59.7" y="50.8" width="0.6" height="3.9" fill="#231f20"/><rect x="61.3" y="53.1" width="0.6" height="3.8" transform="translate(116.5 -6.6) rotate(90)" fill="#231f20"/><rect x="61.3" y="58.2" width="0.6" height="3.8" transform="translate(1.5 121.6) rotate(-90)" fill="#231f20"/><rect x="62.9" y="56.1" width="0.6" height="3.9" fill="#231f20"/><rect x="61.9" y="55.1" width="0.6" height="2.55" transform="translate(5.8 118.6) rotate(-90)" fill="#231f20"/><rect x="60.9" y="56.1" width="0.6" height="1.79" fill="#231f20"/><rect x="61.3" y="56.9" width="0.6" height="1.33" transform="translate(4 119.2) rotate(-90)" fill="#231f20"/><rect x="61.7" y="57.3" width="0.6" height="1.85" fill="#231f20"/><rect x="60.5" y="57.7" width="0.6" height="2.29" transform="translate(2 119.7) rotate(-90)" fill="#231f20"/><rect x="59.7" y="55.2" width="0.6" height="3.9" fill="#231f20"/><rect x="1.2" y="1.3" width="1.7" height="1.71" fill="#231f20"/><rect x="61.1" y="1.3" width="1.7" height="1.71" fill="#231f20"/><rect x="1.2" y="61.2" width="1.7" height="1.71" fill="#231f20"/><rect x="61.1" y="61.2" width="1.7" height="1.71" fill="#231f20"/></svg>