<svg id="Layer_1" data-name="Layer 1" xmlns="http://www.w3.org/2000/svg" width="32" height="32" viewBox="0 0 32 32"><title>logo-32</title><path d="M23.5,19c2-.8,3.5-2.4,3.5-5.7C27,7,21.4,7,17.7,7H4v4.4h8v2.3H6v4.2h6v2.4H4v4.5H16.9V19.7h2l3.3,5.1h5.3ZM19,15.6H16.9V11.3H19c1.6,0,3.2,0,3.2,2.2S20.7,15.6,19,15.6Z" fill="#231f20"/><rect x="2" y="0.5" width="0.3" height="1.87" fill="#231f20"/><rect x="3" y="-0.3" width="0.3" height="1.92" transform="translate(2.5 3.8) rotate(-90)" fill="#231f20"/><rect x="3.8" y="0.5" width="0.3" height="1.26" fill="#231f20"/><rect x="3.5" y="1.2" width="0.3" height="0.88" transform="translate(2 5.3) rotate(-90)" fill="#231f20"/><rect x="3.2" y="1.1" width="0.3" height="0.65" fill="#231f20"/><rect x="2.9" y="0.8" width="0.3" height="0.91" transform="translate(1.8 4.3) rotate(-90)" fill="#231f20"/><rect x="2.6" y="1.3" width="0.3" height="1.13" fill="#231f20"/><rect x="3.4" y="1.3" width="0.3" height="1.92" transform="translate(1.3 5.8) rotate(-90)" fill="#231f20"/><rect x="4.5" y="0.5" width="0.3" height="1.87" fill="#231f20"/><rect x="7" y="0.5" width="0.3" height="1.87" transform="translate(14.3 2.9) rotate(-180)" fill="#231f20"/><rect x="6" y="-0.3" width="0.3" height="1.92" transform="translate(5.5 6.8) rotate(-90)" fill="#231f20"/><rect x="5.2" y="0.5" width="0.3" height="1.26" transform="translate(10.7 2.3) rotate(-180)" fill="#231f20"/><rect x="5.5" y="1.2" width="0.3" height="0.88" transform="translate(4 7.3) rotate(-90)" fill="#231f20"/><rect x="5.8" y="1.1" width="0.3" height="0.65" transform="translate(11.9 2.9) rotate(-180)" fill="#231f20"/><rect x="6.1" y="0.8" width="0.3" height="0.91" transform="translate(5 7.5) rotate(-90)" fill="#231f20"/><rect x="6.4" y="1.3" width="0.3" height="1.13" transform="translate(13.1 3.6) rotate(-180)" fill="#231f20"/><rect x="5.6" y="1.3" width="0.3" height="1.92" transform="translate(3.5 8) rotate(-90)" fill="#231f20"/><rect x="7.6" y="0.5" width="0.3" height="1.87" fill="#231f20"/><rect x="8.6" y="1.3" width="0.3" height="1.92" transform="translate(11 -6.5) rotate(90)" fill="#231f20"/><rect x="9.4" y="1.1" width="0.3" height="1.26" fill="#231f20"/><rect x="9.1" y="0.8" width="0.3" height="0.88" transform="translate(10.5 -8) rotate(90)" fill="#231f20"/><rect x="8.8" y="1.1" width="0.3" height="0.65" fill="#231f20"/><rect x="8.5" y="1.2" width="0.3" height="0.91" transform="translate(10.3 -7) rotate(90)" fill="#231f20"/><rect x="8.2" y="0.5" width="0.3" height="1.13" fill="#231f20"/><rect x="9" y="-0.3" width="0.3" height="1.92" transform="translate(9.8 -8.5) rotate(90)" fill="#231f20"/><rect x="10.1" y="0.5" width="0.3" height="1.87" fill="#231f20"/><rect x="12.6" y="0.5" width="0.3" height="1.87" transform="translate(25.5 2.9) rotate(180)" fill="#231f20"/><rect x="11.6" y="1.3" width="0.3" height="1.92" transform="translate(14 -9.5) rotate(90)" fill="#231f20"/><rect x="10.8" y="1.1" width="0.3" height="1.26" transform="translate(21.9 3.5) rotate(180)" fill="#231f20"/><rect x="11.1" y="0.8" width="0.3" height="0.88" transform="translate(12.5 -10) rotate(90)" fill="#231f20"/><rect x="11.4" y="1.1" width="0.3" height="0.65" transform="translate(23.1 2.9) rotate(180)" fill="#231f20"/><rect x="11.7" y="1.2" width="0.3" height="0.91" transform="translate(13.5 -10.2) rotate(90)" fill="#231f20"/><rect x="12" y="0.5" width="0.3" height="1.13" transform="translate(24.4 2.1) rotate(180)" fill="#231f20"/><rect x="11.2" y="-0.3" width="0.3" height="1.92" transform="translate(12 -10.7) rotate(90)" fill="#231f20"/><rect x="13.2" y="0.5" width="0.3" height="1.87" fill="#231f20"/><rect x="14.2" y="-0.3" width="0.3" height="1.92" transform="translate(13.7 15) rotate(-90)" fill="#231f20"/><rect x="15.1" y="0.5" width="0.3" height="1.26" fill="#231f20"/><rect x="14.8" y="1.2" width="0.3" height="0.88" transform="translate(13.3 16.5) rotate(-90)" fill="#231f20"/><rect x="14.5" y="1.1" width="0.3" height="0.65" fill="#231f20"/><rect x="14.2" y="0.8" width="0.3" height="0.91" transform="translate(13 15.6) rotate(-90)" fill="#231f20"/><rect x="13.8" y="1.3" width="0.3" height="1.13" fill="#231f20"/><rect x="14.7" y="1.3" width="0.3" height="1.92" transform="translate(12.6 17) rotate(-90)" fill="#231f20"/><rect x="15.8" y="0.5" width="0.3" height="1.87" fill="#231f20"/><rect x="18.3" y="0.5" width="0.3" height="1.87" transform="translate(36.8 2.9) rotate(-180)" fill="#231f20"/><rect x="17.3" y="-0.3" width="0.3" height="1.92" transform="translate(16.8 18.1) rotate(-90)" fill="#231f20"/><rect x="16.5" y="0.5" width="0.3" height="1.26" transform="translate(33.2 2.3) rotate(-180)" fill="#231f20"/><rect x="16.8" y="1.2" width="0.3" height="0.88" transform="translate(15.3 18.5) rotate(-90)" fill="#231f20"/><rect x="17.1" y="1.1" width="0.3" height="0.65" transform="translate(34.4 2.9) rotate(-180)" fill="#231f20"/><rect x="17.4" y="0.8" width="0.3" height="0.91" transform="translate(16.3 18.8) rotate(-90)" fill="#231f20"/><rect x="17.7" y="1.3" width="0.3" height="1.13" transform="translate(35.6 3.6) rotate(-180)" fill="#231f20"/><rect x="16.9" y="1.3" width="0.3" height="1.92" transform="translate(14.8 19.2) rotate(-90)" fill="#231f20"/><rect x="18.9" y="0.5" width="0.3" height="1.87" fill="#231f20"/><rect x="19.9" y="1.3" width="0.3" height="1.92" transform="translate(22.2 -17.8) rotate(90)" fill="#231f20"/><rect x="20.7" y="1.1" width="0.3" height="1.26" fill="#231f20"/><rect x="20.4" y="0.8" width="0.3" height="0.88" transform="translate(21.8 -19.3) rotate(90)" fill="#231f20"/><rect x="20.1" y="1.1" width="0.3" height="0.65" fill="#231f20"/><rect x="19.8" y="1.2" width="0.3" height="0.91" transform="translate(21.5 -18.3) rotate(90)" fill="#231f20"/><rect x="19.5" y="0.5" width="0.3" height="1.13" fill="#231f20"/><rect x="20.3" y="-0.3" width="0.3" height="1.92" transform="translate(21.1 -19.8) rotate(90)" fill="#231f20"/><rect x="21.4" y="0.5" width="0.3" height="1.87" fill="#231f20"/><rect x="23.9" y="0.5" width="0.3" height="1.87" transform="translate(48.1 2.9) rotate(180)" fill="#231f20"/><rect x="22.9" y="1.3" width="0.3" height="1.92" transform="translate(25.3 -20.8) rotate(90)" fill="#231f20"/><rect x="22.1" y="1.1" width="0.3" height="1.26" transform="translate(44.4 3.5) rotate(180)" fill="#231f20"/><rect x="22.4" y="0.8" width="0.3" height="0.88" transform="translate(23.8 -21.2) rotate(90)" fill="#231f20"/><rect x="22.7" y="1.1" width="0.3" height="0.65" transform="translate(45.6 2.9) rotate(180)" fill="#231f20"/><rect x="23" y="1.2" width="0.3" height="0.91" transform="translate(24.7 -21.5) rotate(90)" fill="#231f20"/><rect x="23.3" y="0.5" width="0.3" height="1.13" transform="translate(46.9 2.1) rotate(180)" fill="#231f20"/><rect x="22.5" y="-0.3" width="0.3" height="1.92" transform="translate(23.3 -22) rotate(90)" fill="#231f20"/><rect x="24.5" y="0.5" width="0.3" height="1.87" fill="#231f20"/><rect x="25.5" y="-0.3" width="0.3" height="1.92" transform="translate(25 26.3) rotate(-90)" fill="#231f20"/><rect x="26.3" y="0.5" width="0.3" height="1.26" fill="#231f20"/><rect x="26" y="1.2" width="0.3" height="0.88" transform="translate(24.5 27.8) rotate(-90)" fill="#231f20"/><rect x="25.7" y="1.1" width="0.3" height="0.65" fill="#231f20"/><rect x="25.4" y="0.8" width="0.3" height="0.91" transform="translate(24.3 26.8) rotate(-90)" fill="#231f20"/><rect x="25.1" y="1.3" width="0.3" height="1.13" fill="#231f20"/><rect x="25.9" y="1.3" width="0.3" height="1.92" transform="translate(23.8 28.3) rotate(-90)" fill="#231f20"/><rect x="27" y="0.5" width="0.3" height="1.87" fill="#231f20"/><rect x="29.5" y="0.5" width="0.3" height="1.87" transform="translate(59.3 2.9) rotate(-180)" fill="#231f20"/><rect x="28.5" y="-0.3" width="0.3" height="1.92" transform="translate(28 29.3) rotate(-90)" fill="#231f20"/><rect x="27.7" y="0.5" width="0.3" height="1.26" transform="translate(55.7 2.3) rotate(-180)" fill="#231f20"/><rect x="28" y="1.2" width="0.3" height="0.88" transform="translate(26.5 29.8) rotate(-90)" fill="#231f20"/><rect x="28.3" y="1.1" width="0.3" height="0.65" transform="translate(56.9 2.9) rotate(-180)" fill="#231f20"/><rect x="28.6" y="0.8" width="0.3" height="0.91" transform="translate(27.5 30) rotate(-90)" fill="#231f20"/><rect x="28.9" y="1.3" width="0.3" height="1.13" transform="translate(58.1 3.6) rotate(-180)" fill="#231f20"/><rect x="28.1" y="1.3" width="0.3" height="1.92" transform="translate(26 30.5) rotate(-90)" fill="#231f20"/><rect x="1.2" y="28.8" width="0.3" height="1.87" transform="translate(-28.4 31.1) rotate(-90)" fill="#231f20"/><rect x="0.4" y="27.8" width="0.3" height="1.92" transform="translate(1.1 57.5) rotate(-180)" fill="#231f20"/><rect x="0.9" y="27.3" width="0.3" height="1.26" transform="translate(-26.9 29) rotate(-90)" fill="#231f20"/><rect x="1.4" y="27.8" width="0.3" height="0.88" transform="translate(3 56.5) rotate(-180)" fill="#231f20"/><rect x="1.2" y="28.2" width="0.3" height="0.65" transform="translate(-27.2 29.9) rotate(-90)" fill="#231f20"/><rect x="1" y="28.4" width="0.3" height="0.91" transform="translate(2.3 57.7) rotate(-180)" fill="#231f20"/><rect x="1.6" y="28.6" width="0.3" height="1.13" transform="translate(-27.4 30.9) rotate(-90)" fill="#231f20"/><rect x="2" y="27.4" width="0.3" height="1.92" transform="translate(4.3 56.7) rotate(-180)" fill="#231f20"/><rect x="1.2" y="26.3" width="0.3" height="1.87" transform="translate(-25.9 28.6) rotate(-90)" fill="#231f20"/><rect x="1.2" y="23.8" width="0.3" height="1.87" transform="translate(26.1 23.4) rotate(90)" fill="#231f20"/><rect x="0.4" y="24.8" width="0.3" height="1.92" transform="translate(1.1 51.5) rotate(-180)" fill="#231f20"/><rect x="0.9" y="25.9" width="0.3" height="1.26" transform="translate(27.6 25.5) rotate(90)" fill="#231f20"/><rect x="1.4" y="25.8" width="0.3" height="0.88" transform="translate(3 52.5) rotate(-180)" fill="#231f20"/><rect x="1.2" y="25.6" width="0.3" height="0.65" transform="translate(27.3 24.6) rotate(90)" fill="#231f20"/><rect x="1" y="25.2" width="0.3" height="0.91" transform="translate(2.3 51.3) rotate(-180)" fill="#231f20"/><rect x="1.6" y="24.8" width="0.3" height="1.13" transform="translate(27.1 23.6) rotate(90)" fill="#231f20"/><rect x="2" y="25.2" width="0.3" height="1.92" transform="translate(4.3 52.3) rotate(-180)" fill="#231f20"/><rect x="1.2" y="23.2" width="0.3" height="1.87" transform="translate(-22.8 25.5) rotate(-90)" fill="#231f20"/><rect x="2" y="22.2" width="0.3" height="1.92" fill="#231f20"/><rect x="1.5" y="21.7" width="0.3" height="1.26" transform="translate(-20.7 24) rotate(-90)" fill="#231f20"/><rect x="1" y="22.2" width="0.3" height="0.88" fill="#231f20"/><rect x="1.2" y="22.6" width="0.3" height="0.65" transform="translate(-21.6 24.3) rotate(-90)" fill="#231f20"/><rect x="1.4" y="22.8" width="0.3" height="0.91" fill="#231f20"/><rect x="0.8" y="23" width="0.3" height="1.13" transform="translate(-22.6 24.5) rotate(-90)" fill="#231f20"/><rect x="0.4" y="21.8" width="0.3" height="1.92" fill="#231f20"/><rect x="1.2" y="20.7" width="0.3" height="1.87" transform="translate(-20.3 23) rotate(-90)" fill="#231f20"/><rect x="1.2" y="18.2" width="0.3" height="1.87" transform="translate(20.5 17.8) rotate(90)" fill="#231f20"/><rect x="2" y="19.2" width="0.3" height="1.92" fill="#231f20"/><rect x="1.5" y="20.3" width="0.3" height="1.26" transform="translate(22.6 19.3) rotate(90)" fill="#231f20"/><rect x="1" y="20.2" width="0.3" height="0.88" fill="#231f20"/><rect x="1.2" y="20" width="0.3" height="0.65" transform="translate(21.7 19) rotate(90)" fill="#231f20"/><rect x="1.4" y="19.6" width="0.3" height="0.91" fill="#231f20"/><rect x="0.8" y="19.2" width="0.3" height="1.13" transform="translate(20.7 18.8) rotate(90)" fill="#231f20"/><rect x="0.4" y="19.6" width="0.3" height="1.92" fill="#231f20"/><rect x="1.2" y="17.6" width="0.3" height="1.87" transform="translate(-17.2 19.9) rotate(-90)" fill="#231f20"/><rect x="0.4" y="16.6" width="0.3" height="1.92" transform="translate(1.1 35) rotate(-180)" fill="#231f20"/><rect x="0.9" y="16.1" width="0.3" height="1.26" transform="translate(-15.7 17.7) rotate(-90)" fill="#231f20"/><rect x="1.4" y="16.6" width="0.3" height="0.88" transform="translate(3.1 34) rotate(-180)" fill="#231f20"/><rect x="1.2" y="17" width="0.3" height="0.65" transform="translate(-15.9 18.6) rotate(-90)" fill="#231f20"/><rect x="1" y="17.1" width="0.3" height="0.91" transform="translate(2.3 35.2) rotate(-180)" fill="#231f20"/><rect x="1.6" y="17.4" width="0.3" height="1.13" transform="translate(-16.2 19.6) rotate(-90)" fill="#231f20"/><rect x="2" y="16.1" width="0.3" height="1.92" transform="translate(4.3 34.2) rotate(-180)" fill="#231f20"/><rect x="1.2" y="15.1" width="0.3" height="1.87" transform="translate(-14.7 17.3) rotate(-90)" fill="#231f20"/><rect x="1.2" y="12.5" width="0.3" height="1.87" transform="translate(14.8 12.1) rotate(90)" fill="#231f20"/><rect x="0.4" y="13.5" width="0.3" height="1.92" transform="translate(1.1 29) rotate(-180)" fill="#231f20"/><rect x="0.9" y="14.7" width="0.3" height="1.26" transform="translate(16.3 14.3) rotate(90)" fill="#231f20"/><rect x="1.4" y="14.6" width="0.3" height="0.88" transform="translate(3.1 30) rotate(-180)" fill="#231f20"/><rect x="1.2" y="14.4" width="0.3" height="0.65" transform="translate(16 13.4) rotate(90)" fill="#231f20"/><rect x="1" y="13.9" width="0.3" height="0.91" transform="translate(2.3 28.8) rotate(-180)" fill="#231f20"/><rect x="1.6" y="13.5" width="0.3" height="1.13" transform="translate(15.8 12.4) rotate(90)" fill="#231f20"/><rect x="2" y="13.9" width="0.3" height="1.92" transform="translate(4.3 29.8) rotate(-180)" fill="#231f20"/><rect x="1.2" y="12" width="0.3" height="1.87" transform="translate(-11.6 14.2) rotate(-90)" fill="#231f20"/><rect x="2" y="10.9" width="0.3" height="1.92" fill="#231f20"/><rect x="1.5" y="10.5" width="0.3" height="1.26" transform="translate(-9.4 12.7) rotate(-90)" fill="#231f20"/><rect x="1" y="10.9" width="0.3" height="0.88" fill="#231f20"/><rect x="1.2" y="11.4" width="0.3" height="0.65" transform="translate(-10.3 13) rotate(-90)" fill="#231f20"/><rect x="1.4" y="11.5" width="0.3" height="0.91" fill="#231f20"/><rect x="0.8" y="11.7" width="0.3" height="1.13" transform="translate(-11.3 13.3) rotate(-90)" fill="#231f20"/><rect x="0.4" y="10.5" width="0.3" height="1.92" fill="#231f20"/><rect x="1.2" y="9.5" width="0.3" height="1.87" transform="translate(-9 11.7) rotate(-90)" fill="#231f20"/><rect x="1.2" y="6.9" width="0.3" height="1.87" transform="translate(9.2 6.5) rotate(90)" fill="#231f20"/><rect x="2" y="7.9" width="0.3" height="1.92" fill="#231f20"/><rect x="1.5" y="9.1" width="0.3" height="1.26" transform="translate(11.3 8) rotate(90)" fill="#231f20"/><rect x="1" y="9" width="0.3" height="0.88" fill="#231f20"/><rect x="1.2" y="8.8" width="0.3" height="0.65" transform="translate(10.4 7.8) rotate(90)" fill="#231f20"/><rect x="1.4" y="8.3" width="0.3" height="0.91" fill="#231f20"/><rect x="0.8" y="7.9" width="0.3" height="1.13" transform="translate(9.4 7.5) rotate(90)" fill="#231f20"/><rect x="0.4" y="8.3" width="0.3" height="1.92" fill="#231f20"/><rect x="1.2" y="6.3" width="0.3" height="1.87" transform="translate(-5.9 8.6) rotate(-90)" fill="#231f20"/><rect x="0.4" y="5.3" width="0.3" height="1.92" transform="translate(1.1 12.5) rotate(-180)" fill="#231f20"/><rect x="0.9" y="4.8" width="0.3" height="1.26" transform="translate(-4.4 6.5) rotate(-90)" fill="#231f20"/><rect x="1.4" y="5.3" width="0.3" height="0.88" transform="translate(3.1 11.5) rotate(-180)" fill="#231f20"/><rect x="1.2" y="5.7" width="0.3" height="0.65" transform="translate(-4.7 7.4) rotate(-90)" fill="#231f20"/><rect x="1" y="5.9" width="0.3" height="0.91" transform="translate(2.3 12.7) rotate(-180)" fill="#231f20"/><rect x="1.6" y="6.1" width="0.3" height="1.13" transform="translate(-5 8.4) rotate(-90)" fill="#231f20"/><rect x="2" y="4.9" width="0.3" height="1.92" transform="translate(4.3 11.7) rotate(-180)" fill="#231f20"/><rect x="1.2" y="3.8" width="0.3" height="1.87" transform="translate(-3.4 6.1) rotate(-90)" fill="#231f20"/><rect x="1.2" y="1.3" width="0.3" height="1.87" transform="translate(3.6 0.9) rotate(90)" fill="#231f20"/><rect x="0.4" y="2.3" width="0.3" height="1.92" transform="translate(1.1 6.5) rotate(-180)" fill="#231f20"/><rect x="0.9" y="3.4" width="0.3" height="1.26" transform="translate(5.1 3) rotate(90)" fill="#231f20"/><rect x="1.4" y="3.3" width="0.3" height="0.88" transform="translate(3.1 7.5) rotate(-180)" fill="#231f20"/><rect x="1.2" y="3.1" width="0.3" height="0.65" transform="translate(4.8 2.1) rotate(90)" fill="#231f20"/><rect x="1" y="2.7" width="0.3" height="0.91" transform="translate(2.3 6.3) rotate(-180)" fill="#231f20"/><rect x="1.6" y="2.3" width="0.3" height="1.13" transform="translate(4.6 1.1) rotate(90)" fill="#231f20"/><rect x="2" y="2.7" width="0.3" height="1.92" transform="translate(4.3 7.3) rotate(-180)" fill="#231f20"/><rect x="29.5" y="29.6" width="0.3" height="1.87" transform="translate(59.3 61.1) rotate(-180)" fill="#231f20"/><rect x="28.5" y="30.4" width="0.3" height="1.92" transform="translate(60 2.7) rotate(90)" fill="#231f20"/><rect x="27.7" y="30.2" width="0.3" height="1.26" transform="translate(55.7 61.7) rotate(-180)" fill="#231f20"/><rect x="28" y="29.9" width="0.3" height="0.88" transform="translate(58.5 2.2) rotate(90)" fill="#231f20"/><rect x="28.3" y="30.2" width="0.3" height="0.65" transform="translate(56.9 61.1) rotate(-180)" fill="#231f20"/><rect x="28.6" y="30.3" width="0.3" height="0.91" transform="translate(59.5 2) rotate(90)" fill="#231f20"/><rect x="28.9" y="29.6" width="0.3" height="1.13" transform="translate(58.1 60.4) rotate(-180)" fill="#231f20"/><rect x="28.1" y="28.8" width="0.3" height="1.92" transform="translate(58 1.5) rotate(90)" fill="#231f20"/><rect x="27" y="29.6" width="0.3" height="1.87" transform="translate(54.3 61.1) rotate(-180)" fill="#231f20"/><rect x="24.5" y="29.6" width="0.3" height="1.87" fill="#231f20"/><rect x="25.5" y="30.4" width="0.3" height="1.92" transform="translate(57 5.7) rotate(90)" fill="#231f20"/><rect x="26.3" y="30.2" width="0.3" height="1.26" fill="#231f20"/><rect x="26" y="29.9" width="0.3" height="0.88" transform="translate(56.5 4.2) rotate(90)" fill="#231f20"/><rect x="25.7" y="30.2" width="0.3" height="0.65" fill="#231f20"/><rect x="25.4" y="30.3" width="0.3" height="0.91" transform="translate(56.3 5.2) rotate(90)" fill="#231f20"/><rect x="25.1" y="29.6" width="0.3" height="1.13" fill="#231f20"/><rect x="25.9" y="28.8" width="0.3" height="1.92" transform="translate(55.8 3.7) rotate(90)" fill="#231f20"/><rect x="23.9" y="29.6" width="0.3" height="1.87" transform="translate(48.1 61.1) rotate(-180)" fill="#231f20"/><rect x="22.9" y="28.8" width="0.3" height="1.92" transform="translate(-6.7 52.8) rotate(-90)" fill="#231f20"/><rect x="22.1" y="29.6" width="0.3" height="1.26" transform="translate(44.5 60.5) rotate(-180)" fill="#231f20"/><rect x="22.4" y="30.3" width="0.3" height="0.88" transform="translate(-8.2 53.3) rotate(-90)" fill="#231f20"/><rect x="22.7" y="30.2" width="0.3" height="0.65" transform="translate(45.7 61.1) rotate(-180)" fill="#231f20"/><rect x="23" y="29.9" width="0.3" height="0.91" transform="translate(-7.2 53.5) rotate(-90)" fill="#231f20"/><rect x="23.3" y="30.4" width="0.3" height="1.13" transform="translate(46.9 61.9) rotate(-180)" fill="#231f20"/><rect x="22.5" y="30.4" width="0.3" height="1.92" transform="translate(-8.7 54) rotate(-90)" fill="#231f20"/><rect x="21.4" y="29.6" width="0.3" height="1.87" transform="translate(43.1 61.1) rotate(-180)" fill="#231f20"/><rect x="18.9" y="29.6" width="0.3" height="1.87" fill="#231f20"/><rect x="19.9" y="28.8" width="0.3" height="1.92" transform="translate(-9.7 49.8) rotate(-90)" fill="#231f20"/><rect x="20.7" y="29.6" width="0.3" height="1.26" fill="#231f20"/><rect x="20.4" y="30.3" width="0.3" height="0.88" transform="translate(-10.2 51.3) rotate(-90)" fill="#231f20"/><rect x="20.1" y="30.2" width="0.3" height="0.65" fill="#231f20"/><rect x="19.8" y="29.9" width="0.3" height="0.91" transform="translate(-10.4 50.3) rotate(-90)" fill="#231f20"/><rect x="19.5" y="30.4" width="0.3" height="1.13" fill="#231f20"/><rect x="20.3" y="30.4" width="0.3" height="1.92" transform="translate(-10.9 51.8) rotate(-90)" fill="#231f20"/><rect x="18.3" y="29.6" width="0.3" height="1.87" transform="translate(36.8 61.1) rotate(-180)" fill="#231f20"/><rect x="17.3" y="30.4" width="0.3" height="1.92" transform="translate(48.8 13.9) rotate(90)" fill="#231f20"/><rect x="16.4" y="30.2" width="0.3" height="1.26" transform="translate(33.2 61.7) rotate(-180)" fill="#231f20"/><rect x="16.7" y="29.9" width="0.3" height="0.88" transform="translate(47.3 13.5) rotate(90)" fill="#231f20"/><rect x="17" y="30.2" width="0.3" height="0.65" transform="translate(34.4 61.1) rotate(-180)" fill="#231f20"/><rect x="17.4" y="30.3" width="0.3" height="0.91" transform="translate(48.2 13.2) rotate(90)" fill="#231f20"/><rect x="17.7" y="29.6" width="0.3" height="1.13" transform="translate(35.6 60.4) rotate(-180)" fill="#231f20"/><rect x="16.9" y="28.8" width="0.3" height="1.92" transform="translate(46.8 12.8) rotate(90)" fill="#231f20"/><rect x="15.8" y="29.6" width="0.3" height="1.87" transform="translate(31.8 61.1) rotate(-180)" fill="#231f20"/><rect x="13.2" y="29.6" width="0.3" height="1.87" fill="#231f20"/><rect x="14.2" y="30.4" width="0.3" height="1.92" transform="translate(45.7 17) rotate(90)" fill="#231f20"/><rect x="15.1" y="30.2" width="0.3" height="1.26" fill="#231f20"/><rect x="14.8" y="29.9" width="0.3" height="0.88" transform="translate(45.3 15.5) rotate(90)" fill="#231f20"/><rect x="14.5" y="30.2" width="0.3" height="0.65" fill="#231f20"/><rect x="14.1" y="30.3" width="0.3" height="0.91" transform="translate(45 16.5) rotate(90)" fill="#231f20"/><rect x="13.8" y="29.6" width="0.3" height="1.13" fill="#231f20"/><rect x="14.7" y="28.8" width="0.3" height="1.92" transform="translate(44.6 15) rotate(90)" fill="#231f20"/><rect x="12.7" y="29.6" width="0.3" height="1.87" transform="translate(25.6 61.1) rotate(-180)" fill="#231f20"/><rect x="11.7" y="28.8" width="0.3" height="1.92" transform="translate(-18 41.6) rotate(-90)" fill="#231f20"/><rect x="10.8" y="29.6" width="0.3" height="1.26" transform="translate(22 60.5) rotate(-180)" fill="#231f20"/><rect x="11.1" y="30.3" width="0.3" height="0.88" transform="translate(-19.5 42) rotate(-90)" fill="#231f20"/><rect x="11.4" y="30.2" width="0.3" height="0.65" transform="translate(23.2 61.1) rotate(-180)" fill="#231f20"/><rect x="11.8" y="29.9" width="0.3" height="0.91" transform="translate(-18.5 42.3) rotate(-90)" fill="#231f20"/><rect x="12.1" y="30.4" width="0.3" height="1.13" transform="translate(24.4 61.9) rotate(-180)" fill="#231f20"/><rect x="11.2" y="30.4" width="0.3" height="1.92" transform="translate(-20 42.7) rotate(-90)" fill="#231f20"/><rect x="10.1" y="29.6" width="0.3" height="1.87" transform="translate(20.6 61.1) rotate(-180)" fill="#231f20"/><rect x="7.6" y="29.6" width="0.3" height="1.87" fill="#231f20"/><rect x="8.6" y="28.8" width="0.3" height="1.92" transform="translate(-21 38.5) rotate(-90)" fill="#231f20"/><rect x="9.5" y="29.6" width="0.3" height="1.26" fill="#231f20"/><rect x="9.2" y="30.3" width="0.3" height="0.88" transform="translate(-21.4 40) rotate(-90)" fill="#231f20"/><rect x="8.9" y="30.2" width="0.3" height="0.65" fill="#231f20"/><rect x="8.5" y="29.9" width="0.3" height="0.91" transform="translate(-21.7 39.1) rotate(-90)" fill="#231f20"/><rect x="8.2" y="30.4" width="0.3" height="1.13" fill="#231f20"/><rect x="9" y="30.4" width="0.3" height="1.92" transform="translate(-22.2 40.5) rotate(-90)" fill="#231f20"/><rect x="7" y="29.6" width="0.3" height="1.87" transform="translate(14.3 61.1) rotate(-180)" fill="#231f20"/><rect x="6" y="30.4" width="0.3" height="1.92" transform="translate(37.5 25.2) rotate(90)" fill="#231f20"/><rect x="5.2" y="30.2" width="0.3" height="1.26" transform="translate(10.7 61.7) rotate(-180)" fill="#231f20"/><rect x="5.5" y="29.9" width="0.3" height="0.88" transform="translate(36 24.7) rotate(90)" fill="#231f20"/><rect x="5.8" y="30.2" width="0.3" height="0.65" transform="translate(11.9 61.1) rotate(-180)" fill="#231f20"/><rect x="6.1" y="30.3" width="0.3" height="0.91" transform="translate(37 24.5) rotate(90)" fill="#231f20"/><rect x="6.4" y="29.6" width="0.3" height="1.13" transform="translate(13.2 60.4) rotate(-180)" fill="#231f20"/><rect x="5.6" y="28.8" width="0.3" height="1.92" transform="translate(35.5 24) rotate(90)" fill="#231f20"/><rect x="4.5" y="29.6" width="0.3" height="1.87" transform="translate(9.3 61.1) rotate(-180)" fill="#231f20"/><rect x="2" y="29.6" width="0.3" height="1.87" fill="#231f20"/><rect x="3" y="30.4" width="0.3" height="1.92" transform="translate(34.5 28.2) rotate(90)" fill="#231f20"/><rect x="3.8" y="30.2" width="0.3" height="1.26" fill="#231f20"/><rect x="3.5" y="29.9" width="0.3" height="0.88" transform="translate(34 26.7) rotate(90)" fill="#231f20"/><rect x="3.2" y="30.2" width="0.3" height="0.65" fill="#231f20"/><rect x="2.9" y="30.3" width="0.3" height="0.91" transform="translate(33.8 27.7) rotate(90)" fill="#231f20"/><rect x="2.6" y="29.6" width="0.3" height="1.13" fill="#231f20"/><rect x="3.4" y="28.8" width="0.3" height="1.92" transform="translate(33.3 26.2) rotate(90)" fill="#231f20"/><rect x="30.3" y="1.3" width="0.3" height="1.87" transform="translate(32.7 -28.2) rotate(90)" fill="#231f20"/><rect x="31.1" y="2.3" width="0.3" height="1.92" fill="#231f20"/><rect x="30.6" y="3.4" width="0.3" height="1.26" transform="translate(34.8 -26.7) rotate(90)" fill="#231f20"/><rect x="30.1" y="3.3" width="0.3" height="0.88" fill="#231f20"/><rect x="30.3" y="3.1" width="0.3" height="0.65" transform="translate(33.9 -27) rotate(90)" fill="#231f20"/><rect x="30.5" y="2.7" width="0.3" height="0.91" fill="#231f20"/><rect x="29.9" y="2.3" width="0.3" height="1.13" transform="translate(32.9 -27.2) rotate(90)" fill="#231f20"/><rect x="29.5" y="2.7" width="0.3" height="1.92" fill="#231f20"/><rect x="30.3" y="3.8" width="0.3" height="1.87" transform="translate(35.2 -25.7) rotate(90)" fill="#231f20"/><rect x="30.3" y="6.3" width="0.3" height="1.87" transform="translate(23.2 37.7) rotate(-90)" fill="#231f20"/><rect x="31.1" y="5.3" width="0.3" height="1.92" fill="#231f20"/><rect x="30.6" y="4.8" width="0.3" height="1.26" transform="translate(25.3 36.2) rotate(-90)" fill="#231f20"/><rect x="30.1" y="5.3" width="0.3" height="0.88" fill="#231f20"/><rect x="30.3" y="5.7" width="0.3" height="0.65" transform="translate(24.4 36.5) rotate(-90)" fill="#231f20"/><rect x="30.5" y="5.9" width="0.3" height="0.91" fill="#231f20"/><rect x="29.9" y="6.1" width="0.3" height="1.13" transform="translate(23.4 36.7) rotate(-90)" fill="#231f20"/><rect x="29.5" y="4.9" width="0.3" height="1.92" fill="#231f20"/><rect x="30.3" y="6.9" width="0.3" height="1.87" transform="translate(38.3 -22.6) rotate(90)" fill="#231f20"/><rect x="29.5" y="7.9" width="0.3" height="1.92" transform="translate(59.3 17.7) rotate(-180)" fill="#231f20"/><rect x="30" y="9" width="0.3" height="1.26" transform="translate(39.8 -20.5) rotate(90)" fill="#231f20"/><rect x="30.5" y="8.9" width="0.3" height="0.88" transform="translate(61.3 18.7) rotate(-180)" fill="#231f20"/><rect x="30.3" y="8.7" width="0.3" height="0.65" transform="translate(39.5 -21.4) rotate(90)" fill="#231f20"/><rect x="30.1" y="8.3" width="0.3" height="0.91" transform="translate(60.5 17.5) rotate(-180)" fill="#231f20"/><rect x="30.7" y="7.9" width="0.3" height="1.13" transform="translate(39.3 -22.4) rotate(90)" fill="#231f20"/><rect x="31.1" y="8.3" width="0.3" height="1.92" transform="translate(62.5 18.5) rotate(-180)" fill="#231f20"/><rect x="30.3" y="9.4" width="0.3" height="1.87" transform="translate(40.8 -20.1) rotate(90)" fill="#231f20"/><rect x="30.3" y="11.9" width="0.3" height="1.87" transform="translate(17.6 43.3) rotate(-90)" fill="#231f20"/><rect x="29.5" y="10.9" width="0.3" height="1.92" transform="translate(59.3 23.7) rotate(-180)" fill="#231f20"/><rect x="30" y="10.4" width="0.3" height="1.26" transform="translate(19.1 41.2) rotate(-90)" fill="#231f20"/><rect x="30.5" y="10.9" width="0.3" height="0.88" transform="translate(61.3 22.7) rotate(-180)" fill="#231f20"/><rect x="30.3" y="11.3" width="0.3" height="0.65" transform="translate(18.8 42.1) rotate(-90)" fill="#231f20"/><rect x="30.1" y="11.5" width="0.3" height="0.91" transform="translate(60.5 23.9) rotate(-180)" fill="#231f20"/><rect x="30.7" y="11.7" width="0.3" height="1.13" transform="translate(18.6 43.1) rotate(-90)" fill="#231f20"/><rect x="31.1" y="10.5" width="0.3" height="1.92" transform="translate(62.5 22.9) rotate(-180)" fill="#231f20"/><rect x="30.3" y="12.6" width="0.3" height="1.87" transform="translate(43.9 -17) rotate(90)" fill="#231f20"/><rect x="31.1" y="13.5" width="0.3" height="1.92" fill="#231f20"/><rect x="30.6" y="14.7" width="0.3" height="1.26" transform="translate(46.1 -15.4) rotate(90)" fill="#231f20"/><rect x="30.1" y="14.6" width="0.3" height="0.88" fill="#231f20"/><rect x="30.3" y="14.4" width="0.3" height="0.65" transform="translate(45.2 -15.7) rotate(90)" fill="#231f20"/><rect x="30.5" y="13.9" width="0.3" height="0.91" fill="#231f20"/><rect x="29.9" y="13.5" width="0.3" height="1.13" transform="translate(44.2 -16) rotate(90)" fill="#231f20"/><rect x="29.5" y="13.9" width="0.3" height="1.92" fill="#231f20"/><rect x="30.3" y="15.1" width="0.3" height="1.87" transform="translate(46.4 -14.4) rotate(90)" fill="#231f20"/><rect x="30.3" y="17.6" width="0.3" height="1.87" transform="translate(11.9 49) rotate(-90)" fill="#231f20"/><rect x="31.1" y="16.6" width="0.3" height="1.92" fill="#231f20"/><rect x="30.6" y="16.1" width="0.3" height="1.26" transform="translate(14.1 47.5) rotate(-90)" fill="#231f20"/><rect x="30.1" y="16.6" width="0.3" height="0.88" fill="#231f20"/><rect x="30.3" y="17" width="0.3" height="0.65" transform="translate(13.2 47.7) rotate(-90)" fill="#231f20"/><rect x="30.5" y="17.2" width="0.3" height="0.91" fill="#231f20"/><rect x="29.9" y="17.4" width="0.3" height="1.13" transform="translate(12.2 48) rotate(-90)" fill="#231f20"/><rect x="29.5" y="16.1" width="0.3" height="1.92" fill="#231f20"/><rect x="30.3" y="18.2" width="0.3" height="1.87" transform="translate(49.5 -11.4) rotate(90)" fill="#231f20"/><rect x="29.5" y="19.1" width="0.3" height="1.92" transform="translate(59.3 40.2) rotate(-180)" fill="#231f20"/><rect x="30" y="20.3" width="0.3" height="1.26" transform="translate(51.1 -9.2) rotate(90)" fill="#231f20"/><rect x="30.5" y="20.2" width="0.3" height="0.88" transform="translate(61.3 41.2) rotate(-180)" fill="#231f20"/><rect x="30.3" y="20" width="0.3" height="0.65" transform="translate(50.8 -10.1) rotate(90)" fill="#231f20"/><rect x="30.1" y="19.6" width="0.3" height="0.91" transform="translate(60.5 40) rotate(-180)" fill="#231f20"/><rect x="30.7" y="19.1" width="0.3" height="1.13" transform="translate(50.5 -11.1) rotate(90)" fill="#231f20"/><rect x="31.1" y="19.6" width="0.3" height="1.92" transform="translate(62.5 41) rotate(-180)" fill="#231f20"/><rect x="30.3" y="20.7" width="0.3" height="1.87" transform="translate(52.1 -8.8) rotate(90)" fill="#231f20"/><rect x="30.3" y="23.2" width="0.3" height="1.87" transform="translate(6.3 54.6) rotate(-90)" fill="#231f20"/><rect x="29.5" y="22.2" width="0.3" height="1.92" transform="translate(59.3 46.2) rotate(-180)" fill="#231f20"/><rect x="30" y="21.7" width="0.3" height="1.26" transform="translate(7.8 52.4) rotate(-90)" fill="#231f20"/><rect x="30.5" y="22.2" width="0.3" height="0.88" transform="translate(61.3 45.2) rotate(-180)" fill="#231f20"/><rect x="30.3" y="22.6" width="0.3" height="0.65" transform="translate(7.5 53.3) rotate(-90)" fill="#231f20"/><rect x="30.1" y="22.8" width="0.3" height="0.91" transform="translate(60.5 46.4) rotate(-180)" fill="#231f20"/><rect x="30.7" y="23" width="0.3" height="1.13" transform="translate(7.3 54.4) rotate(-90)" fill="#231f20"/><rect x="31.1" y="21.8" width="0.3" height="1.92" transform="translate(62.5 45.4) rotate(-180)" fill="#231f20"/><rect x="30.3" y="23.8" width="0.3" height="1.87" transform="translate(55.2 -5.7) rotate(90)" fill="#231f20"/><rect x="31.1" y="24.8" width="0.3" height="1.92" fill="#231f20"/><rect x="30.6" y="25.9" width="0.3" height="1.26" transform="translate(57.3 -4.2) rotate(90)" fill="#231f20"/><rect x="30.1" y="25.8" width="0.3" height="0.88" fill="#231f20"/><rect x="30.3" y="25.6" width="0.3" height="0.65" transform="translate(56.4 -4.5) rotate(90)" fill="#231f20"/><rect x="30.5" y="25.2" width="0.3" height="0.91" fill="#231f20"/><rect x="29.9" y="24.8" width="0.3" height="1.13" transform="translate(55.4 -4.8) rotate(90)" fill="#231f20"/><rect x="29.5" y="25.2" width="0.3" height="1.92" fill="#231f20"/><rect x="30.3" y="26.3" width="0.3" height="1.87" transform="translate(57.7 -3.2) rotate(90)" fill="#231f20"/><rect x="30.3" y="28.8" width="0.3" height="1.87" transform="translate(0.7 60.2) rotate(-90)" fill="#231f20"/><rect x="31.1" y="27.8" width="0.3" height="1.92" fill="#231f20"/><rect x="30.6" y="27.3" width="0.3" height="1.26" transform="translate(2.8 58.7) rotate(-90)" fill="#231f20"/><rect x="30.1" y="27.8" width="0.3" height="0.88" fill="#231f20"/><rect x="30.3" y="28.2" width="0.3" height="0.65" transform="translate(1.9 59) rotate(-90)" fill="#231f20"/><rect x="30.5" y="28.4" width="0.3" height="0.91" fill="#231f20"/><rect x="29.9" y="28.6" width="0.3" height="1.13" transform="translate(0.9 59.2) rotate(-90)" fill="#231f20"/><rect x="29.5" y="27.4" width="0.3" height="1.92" fill="#231f20"/><rect x="0.7" y="0.8" width="0.8" height="0.84" fill="#231f20"/><rect x="30.2" y="0.8" width="0.8" height="0.84" fill="#231f20"/><rect x="0.7" y="30.3" width="0.8" height="0.84" fill="#231f20"/><rect x="30.2" y="30.3" width="0.8" height="0.84" fill="#231f20"/></svg>