<svg id="Layer_1" data-name="Layer 1" xmlns="http://www.w3.org/2000/svg" width="64" height="64" viewBox="0 0 64 64"><title>logo</title><path d="M47.4,38c4-1.6,7.2-4.8,7.2-11.5,0-12.9-11.4-12.9-19-12.9H7.8v9H24v4.8H11.9v8.5H24v4.9H7.8v9H34.1V39.6h4l6.7,10.2H55.6Zm-9.2-6.8H34.1V22.5h4.1c3.3,0,6.6,0,6.6,4.3S41.7,31.2,38.2,31.2Z" fill="#231f20"/><rect x="3.7" y="0.5" width="0.6" height="3.8" fill="#231f20"/><rect x="5.8" y="-1.2" width="0.6" height="3.9" transform="translate(5.3 6.9) rotate(-90)" fill="#231f20"/><rect x="7.4" y="0.5" width="0.6" height="2.55" fill="#231f20"/><rect x="6.8" y="1.9" width="0.6" height="1.79" transform="translate(4.4 9.9) rotate(-90)" fill="#231f20"/><rect x="6.2" y="1.7" width="0.6" height="1.33" fill="#231f20"/><rect x="5.6" y="1.1" width="0.6" height="1.85" transform="translate(3.9 7.9) rotate(-90)" fill="#231f20"/><rect x="5" y="2" width="0.6" height="2.29" fill="#231f20"/><rect x="6.6" y="2.1" width="0.6" height="3.9" transform="translate(2.9 10.9) rotate(-90)" fill="#231f20"/><rect x="8.8" y="0.5" width="0.6" height="3.8" fill="#231f20"/><rect x="14" y="0.5" width="0.6" height="3.8" transform="translate(28.5 4.8) rotate(-180)" fill="#231f20"/><rect x="11.9" y="-1.2" width="0.6" height="3.9" transform="translate(11.4 13) rotate(-90)" fill="#231f20"/><rect x="10.3" y="0.5" width="0.6" height="2.55" transform="translate(21.1 3.6) rotate(-180)" fill="#231f20"/><rect x="10.9" y="1.9" width="0.6" height="1.79" transform="translate(8.4 13.9) rotate(-90)" fill="#231f20"/><rect x="11.5" y="1.7" width="0.6" height="1.33" transform="translate(23.5 4.8) rotate(-180)" fill="#231f20"/><rect x="12.1" y="1.1" width="0.6" height="1.85" transform="translate(10.4 14.4) rotate(-90)" fill="#231f20"/><rect x="12.7" y="2" width="0.6" height="2.29" transform="translate(26.1 6.3) rotate(-180)" fill="#231f20"/><rect x="11.1" y="2.1" width="0.6" height="3.9" transform="translate(7.4 15.4) rotate(-90)" fill="#231f20"/><rect x="15.1" y="0.5" width="0.6" height="3.8" fill="#231f20"/><rect x="17.2" y="2.1" width="0.6" height="3.9" transform="translate(21.5 -13.5) rotate(90)" fill="#231f20"/><rect x="18.8" y="1.7" width="0.6" height="2.55" fill="#231f20"/><rect x="18.2" y="1.1" width="0.6" height="1.79" transform="translate(20.5 -16.5) rotate(90)" fill="#231f20"/><rect x="17.6" y="1.7" width="0.6" height="1.33" fill="#231f20"/><rect x="17" y="1.9" width="0.6" height="1.85" transform="translate(20.1 -14.5) rotate(90)" fill="#231f20"/><rect x="16.3" y="0.5" width="0.6" height="2.29" fill="#231f20"/><rect x="18" y="-1.2" width="0.6" height="3.9" transform="translate(19.1 -17.5) rotate(90)" fill="#231f20"/><rect x="20.2" y="0.5" width="0.6" height="3.8" fill="#231f20"/><rect x="25.4" y="0.5" width="0.6" height="3.8" transform="translate(51.3 4.8) rotate(180)" fill="#231f20"/><rect x="23.3" y="2.1" width="0.6" height="3.9" transform="translate(27.6 -19.6) rotate(90)" fill="#231f20"/><rect x="21.7" y="1.7" width="0.6" height="2.55" transform="translate(43.9 6) rotate(180)" fill="#231f20"/><rect x="22.3" y="1.1" width="0.6" height="1.79" transform="translate(24.6 -20.5) rotate(90)" fill="#231f20"/><rect x="22.9" y="1.7" width="0.6" height="1.33" transform="translate(46.3 4.8) rotate(180)" fill="#231f20"/><rect x="23.5" y="1.9" width="0.6" height="1.85" transform="translate(26.6 -21) rotate(90)" fill="#231f20"/><rect x="24.1" y="0.5" width="0.6" height="2.29" transform="translate(48.9 3.3) rotate(180)" fill="#231f20"/><rect x="22.5" y="-1.2" width="0.6" height="3.9" transform="translate(23.6 -22) rotate(90)" fill="#231f20"/><rect x="26.6" y="0.5" width="0.6" height="3.8" fill="#231f20"/><rect x="28.6" y="-1.1" width="0.6" height="3.9" transform="translate(28.1 29.7) rotate(-90)" fill="#231f20"/><rect x="30.3" y="0.5" width="0.6" height="2.55" fill="#231f20"/><rect x="29.7" y="1.9" width="0.6" height="1.79" transform="translate(27.2 32.8) rotate(-90)" fill="#231f20"/><rect x="29.1" y="1.7" width="0.6" height="1.33" fill="#231f20"/><rect x="28.5" y="1.1" width="0.6" height="1.85" transform="translate(26.7 30.8) rotate(-90)" fill="#231f20"/><rect x="27.8" y="2" width="0.6" height="2.29" fill="#231f20"/><rect x="29.5" y="2.1" width="0.6" height="3.9" transform="translate(25.7 33.8) rotate(-90)" fill="#231f20"/><rect x="31.7" y="0.5" width="0.6" height="3.8" fill="#231f20"/><rect x="36.8" y="0.5" width="0.6" height="3.8" transform="translate(74.2 4.8) rotate(-180)" fill="#231f20"/><rect x="34.8" y="-1.1" width="0.6" height="3.9" transform="translate(34.3 35.9) rotate(-90)" fill="#231f20"/><rect x="33.1" y="0.5" width="0.6" height="2.55" transform="translate(66.8 3.6) rotate(-180)" fill="#231f20"/><rect x="33.7" y="1.9" width="0.6" height="1.79" transform="translate(31.3 36.8) rotate(-90)" fill="#231f20"/><rect x="34.3" y="1.7" width="0.6" height="1.33" transform="translate(69.3 4.8) rotate(-180)" fill="#231f20"/><rect x="35" y="1.1" width="0.6" height="1.85" transform="translate(33.2 37.3) rotate(-90)" fill="#231f20"/><rect x="35.6" y="2" width="0.6" height="2.29" transform="translate(71.8 6.3) rotate(-180)" fill="#231f20"/><rect x="34" y="2.1" width="0.6" height="3.9" transform="translate(30.2 38.3) rotate(-90)" fill="#231f20"/><rect x="38" y="0.5" width="0.6" height="3.8" fill="#231f20"/><rect x="40" y="2.1" width="0.6" height="3.9" transform="translate(44.3 -36.3) rotate(90)" fill="#231f20"/><rect x="41.7" y="1.7" width="0.6" height="2.55" fill="#231f20"/><rect x="41.1" y="1.1" width="0.6" height="1.79" transform="translate(43.4 -39.3) rotate(90)" fill="#231f20"/><rect x="40.5" y="1.7" width="0.6" height="1.33" fill="#231f20"/><rect x="39.8" y="1.9" width="0.6" height="1.85" transform="translate(42.9 -37.4) rotate(90)" fill="#231f20"/><rect x="39.2" y="0.5" width="0.6" height="2.29" fill="#231f20"/><rect x="40.9" y="-1.2" width="0.6" height="3.9" transform="translate(42 -40.4) rotate(90)" fill="#231f20"/><rect x="43.1" y="0.5" width="0.6" height="3.8" fill="#231f20"/><rect x="48.2" y="0.5" width="0.6" height="3.8" transform="translate(97 4.8) rotate(180)" fill="#231f20"/><rect x="46.2" y="2.1" width="0.6" height="3.9" transform="translate(50.5 -42.5) rotate(90)" fill="#231f20"/><rect x="44.5" y="1.7" width="0.6" height="2.55" transform="translate(89.6 6) rotate(180)" fill="#231f20"/><rect x="45.1" y="1.1" width="0.6" height="1.79" transform="translate(47.5 -43.4) rotate(90)" fill="#231f20"/><rect x="45.7" y="1.7" width="0.6" height="1.33" transform="translate(92.1 4.8) rotate(180)" fill="#231f20"/><rect x="46.4" y="1.9" width="0.6" height="1.85" transform="translate(49.4 -43.9) rotate(90)" fill="#231f20"/><rect x="47" y="0.5" width="0.6" height="2.29" transform="translate(94.6 3.3) rotate(180)" fill="#231f20"/><rect x="45.3" y="-1.2" width="0.6" height="3.9" transform="translate(46.4 -44.9) rotate(90)" fill="#231f20"/><rect x="49.4" y="0.5" width="0.6" height="3.8" fill="#231f20"/><rect x="51.5" y="-1.1" width="0.6" height="3.9" transform="translate(51 52.6) rotate(-90)" fill="#231f20"/><rect x="53.1" y="0.5" width="0.6" height="2.55" fill="#231f20"/><rect x="52.5" y="1.9" width="0.6" height="1.79" transform="translate(50 55.6) rotate(-90)" fill="#231f20"/><rect x="51.9" y="1.7" width="0.6" height="1.33" fill="#231f20"/><rect x="51.3" y="1.1" width="0.6" height="1.85" transform="translate(49.6 53.6) rotate(-90)" fill="#231f20"/><rect x="50.7" y="2" width="0.6" height="2.29" fill="#231f20"/><rect x="52.3" y="2.1" width="0.6" height="3.9" transform="translate(48.6 56.6) rotate(-90)" fill="#231f20"/><rect x="54.5" y="0.5" width="0.6" height="3.8" fill="#231f20"/><rect x="59.7" y="0.5" width="0.6" height="3.8" transform="translate(119.9 4.8) rotate(-180)" fill="#231f20"/><rect x="57.6" y="-1.1" width="0.6" height="3.9" transform="translate(57.1 58.7) rotate(-90)" fill="#231f20"/><rect x="56" y="0.5" width="0.6" height="2.55" transform="translate(112.5 3.6) rotate(-180)" fill="#231f20"/><rect x="56.6" y="1.9" width="0.6" height="1.79" transform="translate(54.1 59.6) rotate(-90)" fill="#231f20"/><rect x="57.2" y="1.7" width="0.6" height="1.33" transform="translate(114.9 4.8) rotate(-180)" fill="#231f20"/><rect x="57.8" y="1.1" width="0.6" height="1.85" transform="translate(56.1 60.1) rotate(-90)" fill="#231f20"/><rect x="58.4" y="2" width="0.6" height="2.29" transform="translate(117.5 6.3) rotate(-180)" fill="#231f20"/><rect x="56.8" y="2.1" width="0.6" height="3.9" transform="translate(53.1 61.1) rotate(-90)" fill="#231f20"/><rect x="2.1" y="58.1" width="0.6" height="3.8" transform="translate(-57.5 62.4) rotate(-90)" fill="#231f20"/><rect x="0.5" y="56" width="0.6" height="3.9" transform="translate(1.6 115.9) rotate(-180)" fill="#231f20"/><rect x="1.5" y="55" width="0.6" height="2.55" transform="translate(-54.5 58.1) rotate(-90)" fill="#231f20"/><rect x="2.5" y="56" width="0.6" height="1.79" transform="translate(5.5 113.7) rotate(-180)" fill="#231f20"/><rect x="2.1" y="56.8" width="0.6" height="1.33" transform="translate(-55.1 59.9) rotate(-90)" fill="#231f20"/><rect x="1.7" y="57.2" width="0.6" height="1.85" transform="translate(4.1 116.2) rotate(-180)" fill="#231f20"/><rect x="2.9" y="57.6" width="0.6" height="2.29" transform="translate(-55.6 61.9) rotate(-90)" fill="#231f20"/><rect x="3.7" y="55.1" width="0.6" height="3.9" transform="translate(8 114.2) rotate(-180)" fill="#231f20"/><rect x="2.1" y="53" width="0.6" height="3.8" transform="translate(-52.4 57.3) rotate(-90)" fill="#231f20"/><rect x="2.1" y="47.8" width="0.6" height="3.8" transform="translate(52.2 47.3) rotate(90)" fill="#231f20"/><rect x="0.5" y="49.8" width="0.6" height="3.9" transform="translate(1.6 103.6) rotate(-180)" fill="#231f20"/><rect x="1.5" y="52.2" width="0.6" height="2.55" transform="translate(55.2 51.7) rotate(90)" fill="#231f20"/><rect x="2.5" y="51.9" width="0.6" height="1.79" transform="translate(5.5 105.7) rotate(-180)" fill="#231f20"/><rect x="2.1" y="51.6" width="0.6" height="1.33" transform="translate(54.6 49.8) rotate(90)" fill="#231f20"/><rect x="1.7" y="50.7" width="0.6" height="1.85" transform="translate(4.1 103.2) rotate(-180)" fill="#231f20"/><rect x="2.9" y="49.8" width="0.6" height="2.29" transform="translate(54.1 47.8) rotate(90)" fill="#231f20"/><rect x="3.7" y="50.7" width="0.6" height="3.9" transform="translate(8 105.2) rotate(-180)" fill="#231f20"/><rect x="2.1" y="46.7" width="0.6" height="3.8" transform="translate(-46.2 51) rotate(-90)" fill="#231f20"/><rect x="3.7" y="44.6" width="0.6" height="3.9" fill="#231f20"/><rect x="2.7" y="43.6" width="0.6" height="2.55" transform="translate(-41.8 47.9) rotate(-90)" fill="#231f20"/><rect x="1.7" y="44.6" width="0.6" height="1.79" fill="#231f20"/><rect x="2.1" y="45.4" width="0.6" height="1.33" transform="translate(-43.7 48.5) rotate(-90)" fill="#231f20"/><rect x="2.5" y="45.8" width="0.6" height="1.85" fill="#231f20"/><rect x="1.4" y="46.2" width="0.6" height="2.29" transform="translate(-45.7 49) rotate(-90)" fill="#231f20"/><rect x="0.5" y="43.7" width="0.6" height="3.9" fill="#231f20"/><rect x="2.1" y="41.6" width="0.6" height="3.8" transform="translate(-41.1 45.9) rotate(-90)" fill="#231f20"/><rect x="2.1" y="36.4" width="0.6" height="3.8" transform="translate(40.8 35.9) rotate(90)" fill="#231f20"/><rect x="3.7" y="38.4" width="0.6" height="3.9" fill="#231f20"/><rect x="2.7" y="40.8" width="0.6" height="2.55" transform="translate(45.1 39) rotate(90)" fill="#231f20"/><rect x="1.7" y="40.5" width="0.6" height="1.79" fill="#231f20"/><rect x="2.1" y="40.2" width="0.6" height="1.33" transform="translate(43.2 38.4) rotate(90)" fill="#231f20"/><rect x="2.5" y="39.3" width="0.6" height="1.85" fill="#231f20"/><rect x="1.4" y="38.4" width="0.6" height="2.29" transform="translate(41.2 37.9) rotate(90)" fill="#231f20"/><rect x="0.5" y="39.3" width="0.6" height="3.9" fill="#231f20"/><rect x="2.1" y="35.2" width="0.6" height="3.8" transform="translate(-34.7 39.5) rotate(-90)" fill="#231f20"/><rect x="0.5" y="33.1" width="0.6" height="3.9" transform="translate(1.6 70.1) rotate(-180)" fill="#231f20"/><rect x="1.5" y="32.1" width="0.6" height="2.55" transform="translate(-31.6 35.2) rotate(-90)" fill="#231f20"/><rect x="2.5" y="33.1" width="0.6" height="1.79" transform="translate(5.6 68) rotate(-180)" fill="#231f20"/><rect x="2.1" y="34" width="0.6" height="1.33" transform="translate(-32.2 37) rotate(-90)" fill="#231f20"/><rect x="1.7" y="34.3" width="0.6" height="1.85" transform="translate(4.1 70.5) rotate(-180)" fill="#231f20"/><rect x="2.9" y="34.7" width="0.6" height="2.29" transform="translate(-32.7 39.1) rotate(-90)" fill="#231f20"/><rect x="3.7" y="32.3" width="0.6" height="3.9" transform="translate(8.1 68.5) rotate(-180)" fill="#231f20"/><rect x="2.1" y="30.1" width="0.6" height="3.8" transform="translate(-29.6 34.4) rotate(-90)" fill="#231f20"/><rect x="2.1" y="25" width="0.6" height="3.8" transform="translate(29.3 24.5) rotate(90)" fill="#231f20"/><rect x="0.5" y="27" width="0.6" height="3.9" transform="translate(1.6 57.8) rotate(-180)" fill="#231f20"/><rect x="1.5" y="29.3" width="0.6" height="2.55" transform="translate(32.4 28.8) rotate(90)" fill="#231f20"/><rect x="2.5" y="29.1" width="0.6" height="1.79" transform="translate(5.6 59.9) rotate(-180)" fill="#231f20"/><rect x="2.1" y="28.7" width="0.6" height="1.33" transform="translate(31.8 27) rotate(90)" fill="#231f20"/><rect x="1.7" y="27.8" width="0.6" height="1.85" transform="translate(4.1 57.5) rotate(-180)" fill="#231f20"/><rect x="2.9" y="26.9" width="0.6" height="2.29" transform="translate(31.3 24.9) rotate(90)" fill="#231f20"/><rect x="3.7" y="27.8" width="0.6" height="3.9" transform="translate(8.1 59.5) rotate(-180)" fill="#231f20"/><rect x="2.1" y="23.8" width="0.6" height="3.8" transform="translate(-23.3 28.1) rotate(-90)" fill="#231f20"/><rect x="3.7" y="21.7" width="0.6" height="3.9" fill="#231f20"/><rect x="2.7" y="20.7" width="0.6" height="2.55" transform="translate(-19 25) rotate(-90)" fill="#231f20"/><rect x="1.8" y="21.7" width="0.6" height="1.79" fill="#231f20"/><rect x="2.1" y="22.6" width="0.6" height="1.33" transform="translate(-20.8 25.6) rotate(-90)" fill="#231f20"/><rect x="2.5" y="22.9" width="0.6" height="1.85" fill="#231f20"/><rect x="1.4" y="23.3" width="0.6" height="2.29" transform="translate(-22.8 26.1) rotate(-90)" fill="#231f20"/><rect x="0.5" y="20.9" width="0.6" height="3.9" fill="#231f20"/><rect x="2.1" y="18.7" width="0.6" height="3.8" transform="translate(-18.2 23) rotate(-90)" fill="#231f20"/><rect x="2.1" y="13.6" width="0.6" height="3.8" transform="translate(17.9 13.1) rotate(90)" fill="#231f20"/><rect x="3.7" y="15.6" width="0.6" height="3.9" fill="#231f20"/><rect x="2.7" y="17.9" width="0.6" height="2.55" transform="translate(22.2 16.1) rotate(90)" fill="#231f20"/><rect x="1.8" y="17.7" width="0.6" height="1.79" fill="#231f20"/><rect x="2.1" y="17.3" width="0.6" height="1.33" transform="translate(20.4 15.5) rotate(90)" fill="#231f20"/><rect x="2.5" y="16.4" width="0.6" height="1.85" fill="#231f20"/><rect x="1.4" y="15.6" width="0.6" height="2.29" transform="translate(18.3 15) rotate(90)" fill="#231f20"/><rect x="0.5" y="16.4" width="0.6" height="3.9" fill="#231f20"/><rect x="2.1" y="12.4" width="0.6" height="3.8" transform="translate(-11.8 16.7) rotate(-90)" fill="#231f20"/><rect x="0.5" y="10.3" width="0.6" height="3.9" transform="translate(1.6 24.4) rotate(-180)" fill="#231f20"/><rect x="1.5" y="9.3" width="0.6" height="2.55" transform="translate(-8.8 12.4) rotate(-90)" fill="#231f20"/><rect x="2.5" y="10.3" width="0.6" height="1.79" transform="translate(5.6 22.3) rotate(-180)" fill="#231f20"/><rect x="2.1" y="11.1" width="0.6" height="1.33" transform="translate(-9.4 14.2) rotate(-90)" fill="#231f20"/><rect x="1.7" y="11.5" width="0.6" height="1.85" transform="translate(4.1 24.8) rotate(-180)" fill="#231f20"/><rect x="2.9" y="11.9" width="0.6" height="2.29" transform="translate(-9.9 16.2) rotate(-90)" fill="#231f20"/><rect x="3.7" y="9.4" width="0.6" height="3.9" transform="translate(8.1 22.8) rotate(-180)" fill="#231f20"/><rect x="2.1" y="7.3" width="0.6" height="3.8" transform="translate(-6.7 11.6) rotate(-90)" fill="#231f20"/><rect x="2.1" y="2.1" width="0.6" height="3.8" transform="translate(6.5 1.6) rotate(90)" fill="#231f20"/><rect x="0.5" y="4.1" width="0.6" height="3.9" transform="translate(1.6 12.2) rotate(-180)" fill="#231f20"/><rect x="1.5" y="6.5" width="0.6" height="2.55" transform="translate(9.5 5.9) rotate(90)" fill="#231f20"/><rect x="2.5" y="6.2" width="0.6" height="1.79" transform="translate(5.6 14.3) rotate(-180)" fill="#231f20"/><rect x="2.1" y="5.9" width="0.6" height="1.33" transform="translate(8.9 4.1) rotate(90)" fill="#231f20"/><rect x="1.7" y="5" width="0.6" height="1.85" transform="translate(4.1 11.8) rotate(-180)" fill="#231f20"/><rect x="2.9" y="4.1" width="0.6" height="2.29" transform="translate(8.4 2.1) rotate(90)" fill="#231f20"/><rect x="3.7" y="5" width="0.6" height="3.9" transform="translate(8.1 13.8) rotate(-180)" fill="#231f20"/><rect x="59.7" y="59.7" width="0.6" height="3.8" transform="translate(119.9 123.2) rotate(-180)" fill="#231f20"/><rect x="57.6" y="61.2" width="0.6" height="3.9" transform="translate(121.1 5.3) rotate(90)" fill="#231f20"/><rect x="56" y="60.9" width="0.6" height="2.55" transform="translate(112.5 124.4) rotate(-180)" fill="#231f20"/><rect x="56.6" y="60.3" width="0.6" height="1.79" transform="translate(118.1 4.3) rotate(90)" fill="#231f20"/><rect x="57.2" y="60.9" width="0.6" height="1.33" transform="translate(115 123.2) rotate(-180)" fill="#231f20"/><rect x="57.8" y="61" width="0.6" height="1.85" transform="translate(120.1 3.8) rotate(90)" fill="#231f20"/><rect x="58.5" y="59.7" width="0.6" height="2.29" transform="translate(117.5 121.6) rotate(-180)" fill="#231f20"/><rect x="56.8" y="58" width="0.6" height="3.9" transform="translate(117.1 2.9) rotate(90)" fill="#231f20"/><rect x="54.6" y="59.7" width="0.6" height="3.8" transform="translate(109.7 123.2) rotate(-180)" fill="#231f20"/><rect x="49.5" y="59.7" width="0.6" height="3.8" fill="#231f20"/><rect x="51.5" y="61.2" width="0.6" height="3.9" transform="translate(115 11.4) rotate(90)" fill="#231f20"/><rect x="53.2" y="60.9" width="0.6" height="2.55" fill="#231f20"/><rect x="52.5" y="60.3" width="0.6" height="1.79" transform="translate(114.1 8.4) rotate(90)" fill="#231f20"/><rect x="51.9" y="60.9" width="0.6" height="1.33" fill="#231f20"/><rect x="51.3" y="61" width="0.6" height="1.85" transform="translate(113.6 10.4) rotate(90)" fill="#231f20"/><rect x="50.7" y="59.7" width="0.6" height="2.29" fill="#231f20"/><rect x="52.3" y="58" width="0.6" height="3.9" transform="translate(112.6 7.4) rotate(90)" fill="#231f20"/><rect x="48.3" y="59.7" width="0.6" height="3.8" transform="translate(97.1 123.2) rotate(-180)" fill="#231f20"/><rect x="46.2" y="58" width="0.6" height="3.9" transform="translate(-13.4 106.5) rotate(-90)" fill="#231f20"/><rect x="44.6" y="59.7" width="0.6" height="2.55" transform="translate(89.7 121.9) rotate(-180)" fill="#231f20"/><rect x="45.2" y="61.1" width="0.6" height="1.79" transform="translate(-16.5 107.4) rotate(-90)" fill="#231f20"/><rect x="45.8" y="60.9" width="0.6" height="1.33" transform="translate(92.2 123.2) rotate(-180)" fill="#231f20"/><rect x="46.4" y="60.3" width="0.6" height="1.85" transform="translate(-14.5 107.9) rotate(-90)" fill="#231f20"/><rect x="47.1" y="61.2" width="0.6" height="2.29" transform="translate(94.7 124.7) rotate(-180)" fill="#231f20"/><rect x="45.4" y="61.3" width="0.6" height="3.9" transform="translate(-17.5 108.9) rotate(-90)" fill="#231f20"/><rect x="43.2" y="59.7" width="0.6" height="3.8" transform="translate(86.9 123.2) rotate(-180)" fill="#231f20"/><rect x="38.1" y="59.7" width="0.6" height="3.8" fill="#231f20"/><rect x="40.1" y="58" width="0.6" height="3.9" transform="translate(-19.6 100.4) rotate(-90)" fill="#231f20"/><rect x="41.8" y="59.7" width="0.6" height="2.55" fill="#231f20"/><rect x="41.1" y="61.1" width="0.6" height="1.79" transform="translate(-20.5 103.4) rotate(-90)" fill="#231f20"/><rect x="40.5" y="60.9" width="0.6" height="1.33" fill="#231f20"/><rect x="39.9" y="60.3" width="0.6" height="1.85" transform="translate(-21 101.4) rotate(-90)" fill="#231f20"/><rect x="39.3" y="61.2" width="0.6" height="2.29" fill="#231f20"/><rect x="40.9" y="61.3" width="0.6" height="3.9" transform="translate(-22 104.4) rotate(-90)" fill="#231f20"/><rect x="36.8" y="59.7" width="0.6" height="3.8" transform="translate(74.2 123.1) rotate(-180)" fill="#231f20"/><rect x="34.8" y="61.2" width="0.6" height="3.9" transform="translate(98.2 28.1) rotate(90)" fill="#231f20"/><rect x="33.1" y="60.9" width="0.6" height="2.55" transform="translate(66.8 124.4) rotate(-180)" fill="#231f20"/><rect x="33.7" y="60.3" width="0.6" height="1.79" transform="translate(95.2 27.2) rotate(90)" fill="#231f20"/><rect x="34.3" y="60.9" width="0.6" height="1.33" transform="translate(69.2 123.2) rotate(-180)" fill="#231f20"/><rect x="35" y="61" width="0.6" height="1.85" transform="translate(97.2 26.7) rotate(90)" fill="#231f20"/><rect x="35.6" y="59.7" width="0.6" height="2.29" transform="translate(71.8 121.6) rotate(-180)" fill="#231f20"/><rect x="33.9" y="58" width="0.6" height="3.9" transform="translate(94.2 25.7) rotate(90)" fill="#231f20"/><rect x="31.7" y="59.7" width="0.6" height="3.8" transform="translate(64 123.1) rotate(-180)" fill="#231f20"/><rect x="26.6" y="59.7" width="0.6" height="3.8" fill="#231f20"/><rect x="28.6" y="61.2" width="0.6" height="3.9" transform="translate(92.1 34.3) rotate(90)" fill="#231f20"/><rect x="30.3" y="60.9" width="0.6" height="2.55" fill="#231f20"/><rect x="29.7" y="60.3" width="0.6" height="1.79" transform="translate(91.2 31.2) rotate(90)" fill="#231f20"/><rect x="29.1" y="60.9" width="0.6" height="1.33" fill="#231f20"/><rect x="28.4" y="61" width="0.6" height="1.85" transform="translate(90.7 33.2) rotate(90)" fill="#231f20"/><rect x="27.8" y="59.7" width="0.6" height="2.29" fill="#231f20"/><rect x="29.5" y="58" width="0.6" height="3.9" transform="translate(89.7 30.2) rotate(90)" fill="#231f20"/><rect x="25.4" y="59.7" width="0.6" height="3.8" transform="translate(51.4 123.2) rotate(-180)" fill="#231f20"/><rect x="23.4" y="58" width="0.6" height="3.9" transform="translate(-36.3 83.6) rotate(-90)" fill="#231f20"/><rect x="21.7" y="59.7" width="0.6" height="2.55" transform="translate(44 121.9) rotate(-180)" fill="#231f20"/><rect x="22.3" y="61" width="0.6" height="1.79" transform="translate(-39.3 84.6) rotate(-90)" fill="#231f20"/><rect x="22.9" y="60.9" width="0.6" height="1.33" transform="translate(46.4 123.1) rotate(-180)" fill="#231f20"/><rect x="23.6" y="60.3" width="0.6" height="1.85" transform="translate(-37.3 85.1) rotate(-90)" fill="#231f20"/><rect x="24.2" y="61.2" width="0.6" height="2.29" transform="translate(49 124.7) rotate(-180)" fill="#231f20"/><rect x="22.5" y="61.2" width="0.6" height="3.9" transform="translate(-40.4 86) rotate(-90)" fill="#231f20"/><rect x="20.3" y="59.7" width="0.6" height="3.8" transform="translate(41.2 123.2) rotate(-180)" fill="#231f20"/><rect x="15.2" y="59.7" width="0.6" height="3.8" fill="#231f20"/><rect x="17.2" y="58" width="0.6" height="3.9" transform="translate(-42.5 77.5) rotate(-90)" fill="#231f20"/><rect x="18.9" y="59.7" width="0.6" height="2.55" fill="#231f20"/><rect x="18.3" y="61" width="0.6" height="1.79" transform="translate(-43.4 80.5) rotate(-90)" fill="#231f20"/><rect x="17.7" y="60.9" width="0.6" height="1.33" fill="#231f20"/><rect x="17" y="60.3" width="0.6" height="1.85" transform="translate(-43.9 78.5) rotate(-90)" fill="#231f20"/><rect x="16.4" y="61.2" width="0.6" height="2.29" fill="#231f20"/><rect x="18.1" y="61.2" width="0.6" height="3.9" transform="translate(-44.8 81.5) rotate(-90)" fill="#231f20"/><rect x="14" y="59.7" width="0.6" height="3.8" transform="translate(28.5 123.1) rotate(-180)" fill="#231f20"/><rect x="11.9" y="61.2" width="0.6" height="3.9" transform="translate(75.4 51) rotate(90)" fill="#231f20"/><rect x="10.3" y="60.9" width="0.6" height="2.55" transform="translate(21.1 124.4) rotate(-180)" fill="#231f20"/><rect x="10.9" y="60.3" width="0.6" height="1.79" transform="translate(72.4 50) rotate(90)" fill="#231f20"/><rect x="11.5" y="60.9" width="0.6" height="1.33" transform="translate(23.6 123.2) rotate(-180)" fill="#231f20"/><rect x="12.1" y="61" width="0.6" height="1.85" transform="translate(74.4 49.5) rotate(90)" fill="#231f20"/><rect x="12.8" y="59.7" width="0.6" height="2.29" transform="translate(26.1 121.6) rotate(-180)" fill="#231f20"/><rect x="11.1" y="58" width="0.6" height="3.9" transform="translate(71.4 48.6) rotate(90)" fill="#231f20"/><rect x="8.9" y="59.7" width="0.6" height="3.8" transform="translate(18.3 123.1) rotate(-180)" fill="#231f20"/><rect x="3.8" y="59.7" width="0.6" height="3.8" fill="#231f20"/><rect x="5.8" y="61.2" width="0.6" height="3.9" transform="translate(69.3 57.1) rotate(90)" fill="#231f20"/><rect x="7.4" y="60.9" width="0.6" height="2.55" fill="#231f20"/><rect x="6.8" y="60.3" width="0.6" height="1.79" transform="translate(68.3 54.1) rotate(90)" fill="#231f20"/><rect x="6.2" y="60.9" width="0.6" height="1.33" fill="#231f20"/><rect x="5.6" y="61" width="0.6" height="1.85" transform="translate(67.8 56.1) rotate(90)" fill="#231f20"/><rect x="5" y="59.7" width="0.6" height="2.29" fill="#231f20"/><rect x="6.6" y="58" width="0.6" height="3.9" transform="translate(66.9 53) rotate(90)" fill="#231f20"/><rect x="61.3" y="2.1" width="0.6" height="3.8" transform="translate(65.6 -57.5) rotate(90)" fill="#231f20"/><rect x="62.9" y="4.1" width="0.6" height="3.9" fill="#231f20"/><rect x="61.9" y="6.4" width="0.6" height="2.55" transform="translate(69.9 -54.5) rotate(90)" fill="#231f20"/><rect x="60.9" y="6.2" width="0.6" height="1.79" fill="#231f20"/><rect x="61.3" y="5.8" width="0.6" height="1.33" transform="translate(68.1 -55.1) rotate(90)" fill="#231f20"/><rect x="61.7" y="4.9" width="0.6" height="1.85" fill="#231f20"/><rect x="60.5" y="4.1" width="0.6" height="2.29" transform="translate(66 -55.6) rotate(90)" fill="#231f20"/><rect x="59.7" y="4.9" width="0.6" height="3.9" fill="#231f20"/><rect x="61.3" y="7.2" width="0.6" height="3.8" transform="translate(70.7 -52.4) rotate(90)" fill="#231f20"/><rect x="61.3" y="12.3" width="0.6" height="3.8" transform="translate(47.3 75.8) rotate(-90)" fill="#231f20"/><rect x="62.9" y="10.3" width="0.6" height="3.9" fill="#231f20"/><rect x="61.9" y="9.3" width="0.6" height="2.55" transform="translate(51.6 72.7) rotate(-90)" fill="#231f20"/><rect x="60.9" y="10.3" width="0.6" height="1.79" fill="#231f20"/><rect x="61.3" y="11.1" width="0.6" height="1.33" transform="translate(49.8 73.3) rotate(-90)" fill="#231f20"/><rect x="61.7" y="11.5" width="0.6" height="1.85" fill="#231f20"/><rect x="60.5" y="11.9" width="0.6" height="2.29" transform="translate(47.8 73.8) rotate(-90)" fill="#231f20"/><rect x="59.7" y="9.4" width="0.6" height="3.9" fill="#231f20"/><rect x="61.3" y="13.5" width="0.6" height="3.8" transform="translate(77 -46.2) rotate(90)" fill="#231f20"/><rect x="59.7" y="15.5" width="0.6" height="3.9" transform="translate(119.9 34.9) rotate(-180)" fill="#231f20"/><rect x="60.7" y="17.8" width="0.6" height="2.55" transform="translate(80.1 -41.8) rotate(90)" fill="#231f20"/><rect x="61.6" y="17.6" width="0.6" height="1.79" transform="translate(123.9 37) rotate(-180)" fill="#231f20"/><rect x="61.3" y="17.2" width="0.6" height="1.33" transform="translate(79.5 -43.7) rotate(90)" fill="#231f20"/><rect x="60.9" y="16.3" width="0.6" height="1.85" transform="translate(122.4 34.5) rotate(-180)" fill="#231f20"/><rect x="62" y="15.5" width="0.6" height="2.29" transform="translate(79 -45.7) rotate(90)" fill="#231f20"/><rect x="62.9" y="16.3" width="0.6" height="3.9" transform="translate(126.4 36.6) rotate(-180)" fill="#231f20"/><rect x="61.3" y="18.6" width="0.6" height="3.8" transform="translate(82.1 -41) rotate(90)" fill="#231f20"/><rect x="61.3" y="23.7" width="0.6" height="3.8" transform="translate(35.9 87.2) rotate(-90)" fill="#231f20"/><rect x="59.7" y="21.7" width="0.6" height="3.9" transform="translate(119.9 47.2) rotate(-180)" fill="#231f20"/><rect x="60.7" y="20.7" width="0.6" height="2.55" transform="translate(39 82.9) rotate(-90)" fill="#231f20"/><rect x="61.6" y="21.6" width="0.6" height="1.79" transform="translate(123.9 45.1) rotate(-180)" fill="#231f20"/><rect x="61.3" y="22.5" width="0.6" height="1.33" transform="translate(38.4 84.7) rotate(-90)" fill="#231f20"/><rect x="60.9" y="22.9" width="0.6" height="1.85" transform="translate(122.4 47.6) rotate(-180)" fill="#231f20"/><rect x="62" y="23.3" width="0.6" height="2.29" transform="translate(37.9 86.8) rotate(-90)" fill="#231f20"/><rect x="62.9" y="20.8" width="0.6" height="3.9" transform="translate(126.4 45.5) rotate(-180)" fill="#231f20"/><rect x="61.3" y="25" width="0.6" height="3.8" transform="translate(88.4 -34.7) rotate(90)" fill="#231f20"/><rect x="62.9" y="27" width="0.6" height="3.9" fill="#231f20"/><rect x="61.9" y="29.3" width="0.6" height="2.55" transform="translate(92.8 -31.6) rotate(90)" fill="#231f20"/><rect x="60.9" y="29.1" width="0.6" height="1.79" fill="#231f20"/><rect x="61.3" y="28.7" width="0.6" height="1.33" transform="translate(90.9 -32.2) rotate(90)" fill="#231f20"/><rect x="61.6" y="27.8" width="0.6" height="1.85" fill="#231f20"/><rect x="60.5" y="27" width="0.6" height="2.29" transform="translate(88.9 -32.7) rotate(90)" fill="#231f20"/><rect x="59.7" y="27.8" width="0.6" height="3.9" fill="#231f20"/><rect x="61.3" y="30.1" width="0.6" height="3.8" transform="translate(93.6 -29.6) rotate(90)" fill="#231f20"/><rect x="61.3" y="35.2" width="0.6" height="3.8" transform="translate(24.5 98.7) rotate(-90)" fill="#231f20"/><rect x="62.9" y="33.1" width="0.6" height="3.9" fill="#231f20"/><rect x="61.9" y="32.1" width="0.6" height="2.55" transform="translate(28.8 95.6) rotate(-90)" fill="#231f20"/><rect x="60.9" y="33.1" width="0.6" height="1.79" fill="#231f20"/><rect x="61.3" y="34" width="0.6" height="1.33" transform="translate(26.9 96.2) rotate(-90)" fill="#231f20"/><rect x="61.6" y="34.3" width="0.6" height="1.85" fill="#231f20"/><rect x="60.5" y="34.7" width="0.6" height="2.29" transform="translate(24.9 96.7) rotate(-90)" fill="#231f20"/><rect x="59.7" y="32.3" width="0.6" height="3.9" fill="#231f20"/><rect x="61.3" y="36.4" width="0.6" height="3.8" transform="translate(99.9 -23.3) rotate(90)" fill="#231f20"/><rect x="59.7" y="38.4" width="0.6" height="3.9" transform="translate(119.9 80.6) rotate(-180)" fill="#231f20"/><rect x="60.7" y="40.7" width="0.6" height="2.55" transform="translate(102.9 -19) rotate(90)" fill="#231f20"/><rect x="61.6" y="40.5" width="0.6" height="1.79" transform="translate(123.9 82.7) rotate(-180)" fill="#231f20"/><rect x="61.3" y="40.1" width="0.6" height="1.33" transform="translate(102.3 -20.8) rotate(90)" fill="#231f20"/><rect x="60.9" y="39.2" width="0.6" height="1.85" transform="translate(122.4 80.3) rotate(-180)" fill="#231f20"/><rect x="62" y="38.4" width="0.6" height="2.29" transform="translate(101.8 -22.8) rotate(90)" fill="#231f20"/><rect x="62.9" y="39.2" width="0.6" height="3.9" transform="translate(126.4 82.3) rotate(-180)" fill="#231f20"/><rect x="61.3" y="41.5" width="0.6" height="3.8" transform="translate(105 -18.2) rotate(90)" fill="#231f20"/><rect x="61.3" y="46.6" width="0.6" height="3.8" transform="translate(13.1 110.1) rotate(-90)" fill="#231f20"/><rect x="59.7" y="44.5" width="0.6" height="3.9" transform="translate(119.9 92.9) rotate(-180)" fill="#231f20"/><rect x="60.7" y="43.5" width="0.6" height="2.55" transform="translate(16.1 105.7) rotate(-90)" fill="#231f20"/><rect x="61.6" y="44.5" width="0.6" height="1.79" transform="translate(123.9 90.8) rotate(-180)" fill="#231f20"/><rect x="61.3" y="45.4" width="0.6" height="1.33" transform="translate(15.5 107.6) rotate(-90)" fill="#231f20"/><rect x="60.9" y="45.7" width="0.6" height="1.85" transform="translate(122.4 93.3) rotate(-180)" fill="#231f20"/><rect x="62" y="46.1" width="0.6" height="2.29" transform="translate(15 109.6) rotate(-90)" fill="#231f20"/><rect x="62.9" y="43.7" width="0.6" height="3.9" transform="translate(126.4 91.3) rotate(-180)" fill="#231f20"/><rect x="61.3" y="47.8" width="0.6" height="3.8" transform="translate(111.3 -11.8) rotate(90)" fill="#231f20"/><rect x="62.9" y="49.8" width="0.6" height="3.9" fill="#231f20"/><rect x="61.9" y="52.1" width="0.6" height="2.55" transform="translate(115.6 -8.8) rotate(90)" fill="#231f20"/><rect x="60.9" y="51.9" width="0.6" height="1.79" fill="#231f20"/><rect x="61.3" y="51.5" width="0.6" height="1.33" transform="translate(113.8 -9.4) rotate(90)" fill="#231f20"/><rect x="61.6" y="50.6" width="0.6" height="1.85" fill="#231f20"/><rect x="60.5" y="49.8" width="0.6" height="2.29" transform="translate(111.7 -9.9) rotate(90)" fill="#231f20"/><rect x="59.7" y="50.6" width="0.6" height="3.9" fill="#231f20"/><rect x="61.3" y="52.9" width="0.6" height="3.8" transform="translate(116.4 -6.7) rotate(90)" fill="#231f20"/><rect x="61.3" y="58" width="0.6" height="3.8" transform="translate(1.6 121.5) rotate(-90)" fill="#231f20"/><rect x="62.9" y="56" width="0.6" height="3.9" fill="#231f20"/><rect x="61.9" y="55" width="0.6" height="2.55" transform="translate(5.9 118.4) rotate(-90)" fill="#231f20"/><rect x="60.9" y="56" width="0.6" height="1.79" fill="#231f20"/><rect x="61.3" y="56.8" width="0.6" height="1.33" transform="translate(4.1 119) rotate(-90)" fill="#231f20"/><rect x="61.6" y="57.2" width="0.6" height="1.85" fill="#231f20"/><rect x="60.5" y="57.6" width="0.6" height="2.29" transform="translate(2.1 119.5) rotate(-90)" fill="#231f20"/><rect x="59.7" y="55.1" width="0.6" height="3.9" fill="#231f20"/><rect x="1.2" y="1.2" width="1.7" height="1.71" fill="#231f20"/><rect x="61.1" y="1.2" width="1.7" height="1.71" fill="#231f20"/><rect x="1.2" y="61.1" width="1.7" height="1.71" fill="#231f20"/><rect x="61.1" y="61.1" width="1.7" height="1.71" fill="#231f20"/></svg>