<?xml version="1.0" encoding="utf-8"?>
<!-- Generator: Adobe Illustrator 23.1.1, SVG Export Plug-In . SVG Version: 6.00 Build 0)  -->
<svg version="1.1" id="Layer_1" xmlns="http://www.w3.org/2000/svg" xmlns:xlink="http://www.w3.org/1999/xlink" x="0px" y="0px"
	 viewBox="0 0 201.6 72" style="enable-background:new 0 0 201.6 72;" xml:space="preserve">
<style type="text/css">
	.st0{fill:#231F20;}
</style>
<title>Artboard 1</title>
<path class="st0" d="M199.4,67.3c-6.5,2.3-13.3-0.1-16.8-5.1c2.1,2,4.6,0.1,6-2c2-3,2.8-7,3.5-10.5c0.8-3.8,1.3-7.7,1.5-11.7
	c0-2.1,0-4.2-0.1-6.4c-0.1-1.3,0-3-0.7-4.2c-1.5-2.4-4.4-0.7-5.7,1.1c-2,2.6-3,6.1-4.1,9.1s-2.3,7-3.9,10.4
	c-0.3,0.7-0.7,1.5-1.1,2.2c-0.3,0.6-0.7,1.2-1.1,1.7c-0.2,0.3-0.4,0.6-0.6,0.9c-0.3,0.4-2.1,2.9-2.7,2.6s-0.7-2.5-0.8-3
	c-0.2-1.4-0.4-2.7-0.5-4c-0.1-1.4,0.4-1.4,0.5-2.1c0.8-3.6,1.3-7.3-0.3-10.9c-0.1-0.3-0.4-0.5-0.6-0.6c-0.2-1.5-1.1-2.8-2.4-3.5
	c-0.3-0.2-0.5-0.3-0.8-0.4c-0.4-0.4-0.9-0.7-1.4-0.9c-2.8-1.2-5.6,0.3-7.7,2.1c-1.9,1.6-3.4,3.5-4.6,5.7c-2.6,2.6-4.8,5.7-6.3,9.1
	c-1.5,3.1-2.7,6.4-4.4,9.4c-1.7,3-1.9-0.2-2.2-1.7c-0.3-1.5-0.5-3-0.6-4.5v-1.7c2.7-5.3,4.9-10.7,6.6-16.3c0.5-1.6-1.6-2.8-2.8-1.6
	c-4.2,4.1-6.6,9.6-7.2,15.4c-0.1,0.7-0.1,1.3-0.1,2l-0.3,0.5c-1.2,2.3-2.5,4.5-3.9,6.7c-0.5,0.7-1.6,3.3-2.6,3.5s-2.6-2.8-3.1-3.8
	c-1.4-2.6-2.7-5.4-3.8-8.2c-1.2-3.1-2.1-6,0.5-8.5c1.8-1.8,4.1-3.1,6.1-4.6c2.2-1.7,4.3-3.5,6.3-5.4c3.4-3.5,6.3-7.9,7.4-12.8
	c0.9-4.1,0.4-10.1-4.1-12c-3.7-1.6-8.1,1.2-11.1,4c0-0.2,0-0.3,0-0.5c-0.2-1.6-0.1-4-1.1-5.3c-1.8-2.6-5.7-0.3-7.7,0.7
	c-6.8,3.2-11.7,8.9-14.3,15.9c-0.3,0.9,1.2,1.6,1.6,0.7c2.8-5.7,7.4-10.3,13-13.2c1.3-0.7,2.8-1.6,4.3-1.8c1.4-0.2,0.7,0.1,0.7,1.3
	c0.1,1.2,0.1,1.8,0.1,2.7s0,2.3,0,3.4c-2.7,3.7-4.5,8-6.5,12.1c-4.1,8.8-10.5,17.3-13.6,26.6c-2.3-2.1-4-4.8-4.9-7.8
	c0.2-2.7,0-5.5-0.5-8.2c-0.1-1-1.2-1.5-2.1-1.4c-0.2-0.3-0.5-0.5-0.8-0.7c-3.8-2.8-7,4-8.2,6.6c-0.7,1.5-1.7,4.7-1.4,7.1
	c-0.2,1.4-0.2,2.8-0.1,4.2c0,1,0.2,2,0.3,2.9c-0.7,0.7-1.4,1.4-2.1,2.1c-2.8,2.6-6,5.3-9.6,6.6c-3.6,1.3-7.7,0.5-9.8-3.1
	c-2.1-3.6-1.4-7.8-0.3-11.6s2.2-6.9,4.7-9.3l0.8-0.7c1-0.8,2.2-1.3,3.5-1.4l0,0c2.4-0.4,5.1,0.2,7.6,0.7c1.4,0.4,2.8-1.5,1.5-2.7
	c-2.7-2.3-6.3-2.3-9.7-1.3c-1.3,0.2-2.5,0.7-3.6,1.3c-0.4,0.2-0.8,0.5-1.2,0.8h0c-1.6,0.9-3.2,1.9-4.6,3.1c-4,3.1-7.1,7.3-9,12.1
	c-0.3-6.3,0.6-12.5,2.5-18.5c0.6-1.6-1.8-2.5-2.7-1.1c-3.4,5.5-5.6,11.6-6.3,18c-0.5,3.4,0,7-1,10.3s-3.9,6.4-7.7,4.7
	c-6.8-3-4.4-12.4-2.5-17.7c2.4-6.2,6.1-11.8,10.9-16.4c1-0.9,0-2.8-1.4-2.3c-7.4,2.6-14.7,5.8-21.7,9.6c-0.7,0.4-0.8,1.3-0.4,2
	c0.2,0.3,0.4,0.5,0.7,0.6c6.9,2.1-2.6,15.4-5.1,18c-2.5,2.6-5.3,4.9-8.8,5.6s-7.6-0.9-9.1-4.8c-2.2-5.6-1.1-12.3,1.5-17.5
	C6,37.6,7,36,8.3,34.5c4.7-0.6,9-2.9,12.2-6.4c0.5-0.5,0.4-1.3-0.1-1.8c-0.1,0-0.1-0.1-0.2-0.1C16,23.2,9.8,28.9,6.7,32.5
	c-0.6,0.1-1.2,0-1.7-0.2c-1.4-0.9-0.5-2.7-0.1-3.7c0.7-1.8,1.5-3.6,2.5-5.2C11.3,16.6,17.6,11.5,25,9c0.9-0.3,0.6-1.7-0.4-1.4
	c-9.6,2.8-17.5,9.9-21.3,19.1c-0.7,1.8-2,4.4-0.8,6.3c0.6,1,1.6,1.4,2.7,1.6C1.6,39.3-0.2,45.1,0,51c0.3,6.3,3,12.8,10.1,13.3
	c7,0.4,12.9-5.3,16.6-10.5c2.7-3.8,7.5-13,3.2-17c4.4-2.3,8.9-4.3,13.4-6.1c-3.6,4.4-6.3,9.4-8.1,14.8c-2.1,6.3-3.1,15.1,3.7,19
	c2.6,1.5,5.7,1.7,8.3,0c2.5-1.7,4.1-5.3,4.5-8.6c0.6-4.3,0.5-8.5,1.6-12.8l0.3-1.1c-0.3,4.7-0.1,9.4,0.7,14c0.2,1.2,2.2,1.2,2.4,0
	c0.9-5.5,4-10.8,8-14.7c-0.1,0.3-0.2,0.6-0.3,0.8c-2.8,7.1-4.2,18.4,4.8,21.9C76.2,67,84,61,89.1,55.8c0.8,1.4,2.1,2.2,4,2
	c4.1-0.5,5.7-6.2,6.6-9.4v-0.1c1.3,2.1,3,3.9,4.9,5.4c-0.4,1.7-0.6,3.4-0.7,5.2c0,1,1.3,1.9,2.1,1.2c1.4-1,2.6-2.2,3.7-3.5
	c2,0.8,4.1,1.2,6.3,1.3c2.5,0.1,2.4-3.7,0-3.8c-1.3-0.1-2.6-0.4-3.8-0.7c0.6-0.7,1.1-1.5,1.6-2.3c1.9-2.7,3.7-5.5,5.4-8.4
	c0.2,2.8,1.5,5.6,2.6,8.1c1.1,2.5,2.3,4.9,3.8,7.2c1.1,1.9,2.6,4.1,5,4c2.4,0,3.8-2.1,4.9-3.9s1.9-2.9,2.8-4.5
	c0.1,0.4,0.1,0.7,0.2,1.1c0.5,2,1.3,5.5,3.6,6.2c2.3,0.7,4.1-2.3,5-4.1c1-1.8,2.4-5.1,3.6-7.7c-0.9,5.5-0.4,11.9,5,14.8
	c2.1,1.2,4.9,1.5,7.1,0.4c2.2-1.1,4.4-4.3,5.6-6.8c0.3-0.7,0.7-1.3,0.9-1.9c0.3,1.1,0.9,2.1,1.8,2.8c1.9,1.5,3.8,0.9,5.5-0.7
	c0.6,4.2,2.8,8,6.1,10.7c5,4.1,11.7,4.8,17.6,2.3C202.5,69.7,201.2,66.7,199.4,67.3z M17.3,27.9c0.5-0.5,1.1-1,1.5-1.6
	c0,0.7,0.1,1.3,0.2,1.9C18.5,27.9,17.9,27.8,17.3,27.9c-1.8,1.6-3.9,2.9-6.2,3.7C12.7,30.2,15.2,28.2,17.3,27.9z M91.3,48.1h0.5
	c0.5-0.7,0.9-1.3,1.4-1.9c0.3-3.1,0.6-6.2,0.9-9.2c0-0.2,0-0.4,0-0.6h0c0.7-1,1.3-2.9,1.9-1c1.3,3.5-0.9,7.9-2.8,10.8l0,0v0.3
	c0,0.8-0.6,1.4-1.4,1.6c-0.2,0.2-0.3,0.4-0.5,0.7V48.1z M93.8,53c-0.9,1.3-1.5,0.8-1.9-0.1c1.6-1.7,3-3.5,4.2-5.5
	C95.6,49.4,94.9,51.5,93.8,53z M136.5,6.6c4.3-1.4,5,3.8,4.5,7c-0.9,5.5-4.6,10.1-8.5,13.7c-1.9,1.8-4,3.4-6.1,4.9l-2.5,1.7
	c2.9-6.4,4.9-13.3,5.4-20.3c0-0.6,0-1.1,0.1-1.7l0.9-1C132,9.1,134.1,7.4,136.5,6.6z M107.2,55.3c0.1,0,0.1-0.1,0.2-0.2
	c0.1-0.1,0,0.2-0.1,0.3L107.2,55.3z M111.6,48.6l-2.1,3.5l-1.1-0.6c2.9-9,9.2-17,13.2-25.2c1.1-2.3,2.1-4.7,3.3-7
	c-1.4,7.1-4.3,13.8-7.7,20.2C115.4,42.5,113.5,45.6,111.6,48.6z M166.4,55.5c-1.2,2.4-2.7,6.1-5.6,6.7s-5.8-1.8-6.8-4.5
	c-1.9-5-0.3-11.6,2-16.3c0.8-0.9,1.7-1.8,2.6-2.6c1.3-1.1,2.7-2.1,4.1-2.9c0.7-0.4,1.4-0.8,2.1-1.2c0.8-0.2,1.6-0.4,2.4-0.4
	c0.5,0.8,0.8,1.6,1.2,2.5c0.2,0.4,0.5,0.8,0.9,1c-0.6,3.7-0.8,7.6-0.4,11.3v0.1C168.2,51.4,167.4,53.5,166.4,55.5z M183.7,45.8
	c1.4-3.5,2.4-7,3.7-10.5c0.7-1.7,1.3-3.8,2.5-5.2l0.2-0.1c0-0.2,0-0.4-0.1-0.7c0.8,0,0.8,0.2,0.1,0.7c0,0.4,0,0.8,0.1,1.2
	c0,1.1,0.1,2.1,0.1,3.2c0,4.5-0.4,9.1-1.4,13.5c-0.5,2.1-1,4.1-1.7,6.1c-0.7,2-1.1,4.2-2.6,5.2c0.2,0.2,0.4,0.4,0.7,0.5l-1.4-0.2
	c0.3,0,0.5-0.1,0.7-0.3c-1.4-1.5-1.6-4.9-2.3-6.6c-0.2-0.6-0.6-1.1-1-1.6C182.5,48.9,183.3,46.8,183.7,45.8z"/>
<path class="st0" d="M18.8,26.3c0,0.7,0.1,1.3,0.2,1.9c-0.5-0.3-1.2-0.4-1.8-0.3C17.8,27.4,18.3,26.9,18.8,26.3z"/>
<path class="st0" d="M71.7,36.4c1-0.8,2.2-1.3,3.5-1.4l-2.6,1L71.7,36.4z"/>
<path class="st0" d="M91.8,48c0.5-0.7,0.9-1.3,1.4-1.9v0.3C93.1,47.2,92.6,47.9,91.8,48z"/>
<path class="st0" d="M107.4,55c0,0.1,0,0.2-0.1,0.3l-0.1-0.1C107.2,55.2,107.3,55.1,107.4,55z"/>
<path class="st0" d="M56.9,21.3c1.5-2.6,3.5-4.9,5.8-6.8c2.2-1.9,4.7-3.4,6.7-5.5c0.7-0.7,0-2-1-1.6c-6,1.8-11.1,7.4-13.2,13.2
	C54.9,21.6,56.4,22.2,56.9,21.3z"/>
<path class="st0" d="M107.2,55.3c0.1,0,0.1-0.1,0.2-0.2c0.1-0.1,0,0.2-0.1,0.3L107.2,55.3z"/>
<path class="st0" d="M178,50.2c-0.3,0.6-0.7,1.2-1.1,1.7c0.1-0.2,0.1-0.4,0.1-0.6C177.1,50.8,177.5,50.4,178,50.2z"/>
<path class="st0" d="M184.8,59.2c0.2,0.2,0.4,0.4,0.7,0.5l-1.4-0.2C184.3,59.5,184.5,59.4,184.8,59.2z"/>
<path class="st0" d="M190.2,29.9c0-0.2,0-0.4-0.1-0.7C191,29.3,191,29.5,190.2,29.9z"/>
</svg>
