<svg id="Layer_1" data-name="Layer 1" xmlns="http://www.w3.org/2000/svg" width="6in" height="3in" viewBox="0 0 432 216"><title>Artboard 1</title><path d="M427.2,178.3c-13.9,4.9-28.6-.3-36-11,4.6,4.3,9.9.3,12.9-4.3,4.2-6.5,6-15,7.6-22.5a140.2,140.2,0,0,0,3.2-25c.1-4.6.1-9.1-.2-13.7-.2-2.8.1-6.5-1.6-9.1-3.3-5.2-9.4-1.4-12.2,2.3-4.3,5.5-6.5,13.1-8.7,19.6s-5,15.1-8.4,22.2q-1.1,2.4-2.4,4.8c-.7,1.3-1.5,2.5-2.3,3.7a12.7,12.7,0,0,1-1.3,1.9c-.6.9-4.4,6.2-5.8,5.5s-1.5-5.4-1.7-6.4c-.5-2.9-.8-5.7-1.1-8.6s.8-3,1.1-4.5c1.7-7.8,2.7-15.7-.7-23.3a3.3,3.3,0,0,0-1.3-1.3,9.6,9.6,0,0,0-5.2-7.5,7.1,7.1,0,0,0-1.8-.8,11,11,0,0,0-3.1-2c-6-2.6-12,.7-16.6,4.5a45,45,0,0,0-9.9,12.2,69.3,69.3,0,0,0-13.6,19.4c-3.2,6.7-5.7,13.8-9.4,20.2s-4.1-.5-4.8-3.6a52.5,52.5,0,0,1-1.2-9.7v-3.7a231.1,231.1,0,0,0,14.2-35c1.1-3.5-3.5-5.9-6-3.5-9.1,8.8-14.2,20.6-15.4,33.1a29.5,29.5,0,0,0-.2,4.2l-.6,1c-2.6,4.9-5.3,9.7-8.3,14.4-1,1.6-3.4,7.1-5.6,7.5s-5.5-6-6.6-8.1a163,163,0,0,1-8.1-17.5c-2.6-6.6-4.5-12.8,1-18.3,3.8-3.9,8.8-6.6,13.1-9.9a123.9,123.9,0,0,0,13.4-11.6c7.3-7.6,13.6-17,15.8-27.5,1.9-8.8.9-21.7-8.7-25.8-7.9-3.4-17.4,2.6-23.8,8.5,0-.4-.1-.7-.1-1.1-.4-3.4-.3-8.5-2.3-11.4-3.8-5.5-12.2-.7-16.6,1.4-14.6,6.9-25.1,19-30.7,34-.7,2,2.5,3.4,3.4,1.5a64.1,64.1,0,0,1,27.9-28.3c2.7-1.5,6.1-3.4,9.2-3.8s1.4.3,1.6,2.8.3,3.8.3,5.7.1,4.9,0,7.3c-5.8,7.9-9.7,17.1-13.9,26-8.7,18.9-22.4,37-29.1,57.1A37.4,37.4,0,0,1,216,123.6a73.3,73.3,0,0,0-1.1-17.5c-.3-2.2-2.6-3.2-4.6-2.9a8,8,0,0,0-1.7-1.5c-8.1-6.1-15,8.5-17.5,14.1-1.4,3.3-3.6,10.1-3,15.2a46.2,46.2,0,0,0-.3,9.1,50.5,50.5,0,0,0,.7,6.3c-1.5,1.5-3,3-4.6,4.4-6,5.6-12.8,11.3-20.6,14.1s-16.4,1.1-20.9-6.7-3.1-16.7-.6-24.8,4.8-14.7,10.1-19.9l1.7-1.4A16.6,16.6,0,0,1,161,109h0c5.2-.8,10.9.4,16.2,1.6,3.1.8,6.1-3.3,3.3-5.7-5.7-5-13.4-4.9-20.8-2.7a22.9,22.9,0,0,0-7.8,2.8,22,22,0,0,0-2.5,1.7h-.1a81,81,0,0,0-9.9,6.6,61,61,0,0,0-19.3,25.9,115.9,115.9,0,0,1,5.3-39.6c1.2-3.5-3.8-5.4-5.7-2.4a94.1,94.1,0,0,0-13.6,38.5c-1,7.2-.1,15-2.1,22.1s-8.4,13.7-16.5,10.1c-14.5-6.5-9.5-26.5-5.3-38a96.8,96.8,0,0,1,23.3-35.2c2.1-2,0-6-2.9-5a337.1,337.1,0,0,0-46.4,20.5,3.1,3.1,0,0,0,.7,5.5c14.7,4.4-5.6,33-10.9,38.5s-11.4,10.4-18.8,12-16.3-2-19.6-10.3c-4.7-11.9-2.3-26.4,3.3-37.6A54,54,0,0,1,17.7,108,42.7,42.7,0,0,0,43.9,94.2a2.7,2.7,0,0,0-.5-4.1c-9.2-6.3-22.5,5.9-29.1,13.6a6.9,6.9,0,0,1-3.7-.4c-2.9-1.9-1-5.7-.2-8a67.4,67.4,0,0,1,5.3-11.2A71,71,0,0,1,53.5,53.3c1.9-.7,1.2-3.7-.9-3.1A70.8,70.8,0,0,0,7,91.2c-1.6,3.9-4.3,9.5-1.8,13.5,1.2,2.1,3.4,3,5.7,3.4A57.5,57.5,0,0,0,0,143.4c.6,13.4,6.5,27.5,21.6,28.4s27.7-11.3,35.6-22.5c5.8-8.2,16-27.9,6.8-36.4A310.4,310.4,0,0,1,92.8,99.8a100.6,100.6,0,0,0-17.4,31.8c-4.4,13.5-6.6,32.3,7.9,40.7,5.5,3.2,12.3,3.6,17.7,0s8.7-11.4,9.6-18.4c1.2-9.2,1.1-18.3,3.4-27.4l.6-2.3a121.7,121.7,0,0,0,1.5,30.1c.5,2.5,4.8,2.6,5.2,0,1.9-11.8,8.6-23.2,17.1-31.5a13.4,13.4,0,0,0-.7,1.8c-6,15.2-9,39.5,10.2,47,15.4,6.1,32-6.9,43.1-18,1.8,2.9,4.4,4.8,8.6,4.3,8.7-1.1,12.2-13.2,14.1-20.2v-.2A44.4,44.4,0,0,0,224.2,149a58.1,58.1,0,0,0-1.4,11.1c-.1,2.2,2.7,4,4.6,2.6a43.7,43.7,0,0,0,8-7.5,44.4,44.4,0,0,0,13.4,2.8c5.3.3,5.2-7.9,0-8.2a45.7,45.7,0,0,1-8.2-1.6c1.2-1.6,2.3-3.3,3.5-5,4.1-5.8,8-11.8,11.6-17.9.5,5.9,3.2,11.9,5.6,17.4a108.6,108.6,0,0,0,8.1,15.5c2.4,4,5.5,8.7,10.7,8.6s8.1-4.5,10.6-8.3,4-6.3,5.9-9.6a15.5,15.5,0,0,0,.5,2.3c1.1,4.3,2.8,11.8,7.8,13.3s8.7-5,10.8-8.8,5.2-11,7.8-16.6c-1.9,11.7-.9,25.6,10.8,31.8,4.6,2.5,10.5,3.2,15.3.8s9.4-9.2,12.1-14.6c.7-1.4,1.4-2.7,2-4.1a12,12,0,0,0,3.8,6c4.1,3.2,8.1,1.9,11.8-1.6a36.5,36.5,0,0,0,13.1,22.9c10.8,8.8,25.1,10.3,37.7,4.9C434,183.5,431.2,176.9,427.2,178.3ZM37,93.9a35.5,35.5,0,0,0,3.3-3.4c.1,1.4.3,2.7.5,4.1a5.5,5.5,0,0,0-3.8-.7,37.8,37.8,0,0,1-13.2,7.9C27.2,98.8,32.6,94.5,37,93.9Zm158.6,43.3h1.1c1-1.4,2-2.7,2.9-4.1.6-6.6,1.3-13.2,1.9-19.7a2.8,2.8,0,0,0-.1-1.3h.1c1.4-2.1,2.7-6.2,4.1-2.2,2.8,7.6-1.9,17-6,23.2h0v.6a3.8,3.8,0,0,1-2.9,3.5,13.4,13.4,0,0,1-1.1,1.4Zm5.4,10.5c-2,2.8-3.3,1.8-4.1-.3a94,94,0,0,0,9.1-11.7C204.9,140,203.4,144.4,201,147.7Zm91.6-99.5c9.3-3.1,10.7,8.2,9.6,14.9-1.9,11.7-9.8,21.6-18.2,29.4a119.6,119.6,0,0,1-13.1,10.4l-5.3,3.7c6.2-13.7,10.5-28.5,11.5-43.5.1-1.2.1-2.4.2-3.6l1.9-2.1C282.9,53.5,287.4,49.9,292.6,48.2Zm-63,104.3c.2-.1.3-.3.5-.5s-.1.5-.2.7Zm9.5-14.4-4.6,7.6-2.4-1.3c6.2-19.2,19.7-36.4,28.3-54.1,2.3-4.9,4.5-10,7-15-3.1,15.2-9.3,29.6-16.6,43.2C247.2,125.2,243.2,131.7,239.1,138.1ZM356.6,153c-2.6,5.2-5.7,13.1-12,14.4s-12.5-3.9-14.6-9.6c-4.1-10.7-.7-24.9,4.2-34.9a59.2,59.2,0,0,1,5.6-5.6,78.2,78.2,0,0,1,8.8-6.3,39.6,39.6,0,0,1,4.5-2.5,25.1,25.1,0,0,1,5.2-.9,36.8,36.8,0,0,1,2.5,5.4,3.9,3.9,0,0,0,1.9,2.1,94.2,94.2,0,0,0-.9,24.3v.2A90.6,90.6,0,0,1,356.6,153Zm37.1-20.9c2.9-7.4,5.2-15.1,8-22.5,1.4-3.7,2.7-8.2,5.4-11.1l.5-.3c-.1-.4-.1-.9-.2-1.4,1.8.1,1.8.5.2,1.4a21.1,21.1,0,0,0,.2,2.6c.1,2.3.2,4.6.2,6.9a135.4,135.4,0,0,1-3,29c-1,4.4-2.2,8.8-3.6,13.1s-2.4,9-5.5,11.2a4.5,4.5,0,0,0,1.4,1l-3-.4a3.1,3.1,0,0,0,1.6-.6c-3.1-3.3-3.4-10.5-5-14.2a10.8,10.8,0,0,0-2.1-3.4C391.1,138.8,392.8,134.4,393.7,132.1Z" fill="#fff"/><path d="M40.3,90.5c.1,1.4.3,2.7.5,4.1a5.5,5.5,0,0,0-3.8-.7A35.5,35.5,0,0,0,40.3,90.5Z" fill="#fff"/><path d="M153.6,112.1A16.6,16.6,0,0,1,161,109l-5.5,2.2Z" fill="#fff"/><path d="M196.7,137c1-1.4,2-2.7,2.9-4.1v.6A3.8,3.8,0,0,1,196.7,137Z" fill="#fff"/><path d="M230.1,152c-.1.2-.1.5-.2.7l-.3-.2C229.8,152.4,229.9,152.2,230.1,152Z" fill="#fff"/><path d="M121.9,79.8a52.6,52.6,0,0,1,12.4-14.6c4.7-4.1,10.1-7.2,14.4-11.7,1.4-1.5,0-4.2-2.1-3.5-12.9,3.9-23.7,15.9-28.2,28.3-.8,2,2.4,3.3,3.5,1.5Z" fill="#fff"/><path d="M229.6,152.5c.2-.1.3-.3.5-.5s-.1.5-.2.7Z" fill="#fff"/><path d="M381.4,141.6c-.7,1.3-1.5,2.5-2.3,3.7a5.9,5.9,0,0,0,.2-1.3A3.6,3.6,0,0,1,381.4,141.6Z" fill="#fff"/><path d="M395.9,161a4.5,4.5,0,0,0,1.4,1l-3-.4A3.1,3.1,0,0,0,395.9,161Z" fill="#fff"/><path d="M407.6,98.2c-.1-.4-.1-.9-.2-1.4C409.2,96.9,409.2,97.3,407.6,98.2Z" fill="#fff"/></svg>